{
  "accessors": [
    {
      "bufferView": 1,
      "componentType": 5126,
      "count": 65532,
      "max": [
        29.93116569519043,
        11.510980606079102,
        26.221508026123047
      ],
      "min": [
        -33.36384963989258,
        -1.4555723667144775,
        -37.073509216308594
      ],
      "type": "VEC3"
    },
    {
      "bufferView": 1,
      "byteOffset": 786384,
      "componentType": 5126,
      "count": 65532,
      "max": [
        3.529906098265201e-05,
        0.0,
        1.0
      ],
      "min": [
        -1.0,
        0.0,
        -7.042439392535016e-05
      ],
      "type": "VEC3"
    },
    {
      "bufferView": 2,
      "componentType": 5126,
      "count": 65532,
      "max": [
        0.0,
        0.0,
        0.0,
        1.0
      ],
      "min": [
        0.0,
        0.0,
        0.0,
        1.0
      ],
      "type": "VEC4"
    },
    {
      "bufferView": 0,
      "componentType": 5125,
      "count": 196146,
      "type": "SCALAR"
    },
    {
      "bufferView": 1,
      "byteOffset": 1572768,
      "componentType": 5126,
      "count": 65532,
      "max": [
        29.970605850219727,
        11.208134651184082,
        26.26094627380371
      ],
      "min": [
        -33.32441329956055,
        6.311855792999268,
        -37.073509216308594
      ],
      "type": "VEC3"
    },
    {
      "bufferView": 1,
      "byteOffset": 2359152,
      "componentType": 5126,
      "count": 65532,
      "max": [
        4.366823850432411e-05,
        0.0,
        1.0
      ],
      "min": [
        -1.0,
        0.0,
        -7.051792636048049e-05
      ],
      "type": "VEC3"
    },
    {
      "bufferView": 2,
      "byteOffset": 1048512,
      "componentType": 5126,
      "count": 65532,
      "max": [
        0.0,
        0.0,
        0.0,
        1.0
      ],
      "min": [
        0.0,
        0.0,
        0.0,
        1.0
      ],
      "type": "VEC4"
    },
    {
      "bufferView": 0,
      "byteOffset": 784584,
      "componentType": 5125,
      "count": 196134,
      "type": "SCALAR"
    },
    {
      "bufferView": 1,
      "byteOffset": 3145536,
      "componentType": 5126,
      "count": 65532,
      "max": [
        29.970605850219727,
        10.527446746826172,
        26.221508026123047
      ],
      "min": [
        -33.36384963989258,
        6.992543697357178,
        -37.03407287597656
      ],
      "type": "VEC3"
    },
    {
      "bufferView": 1,
      "byteOffset": 3931920,
      "componentType": 5126,
      "count": 65532,
      "max": [
        4.3699590605683625e-05,
        0.0,
        1.0
      ],
      "min": [
        -4.36804439232219e-05,
        0.0,
        0.9999999403953552
      ],
      "type": "VEC3"
    },
    {
      "bufferView": 2,
      "byteOffset": 2097024,
      "componentType": 5126,
      "count": 65532,
      "max": [
        0.0,
        0.0,
        0.0,
        1.0
      ],
      "min": [
        0.0,
        0.0,
        0.0,
        1.0
      ],
      "type": "VEC4"
    },
    {
      "bufferView": 0,
      "byteOffset": 1569120,
      "componentType": 5125,
      "count": 196140,
      "type": "SCALAR"
    },
    {
      "bufferView": 1,
      "byteOffset": 4718304,
      "componentType": 5126,
      "count": 65532,
      "max": [
        29.970605850219727,
        11.267812728881836,
        26.221508026123047
      ],
      "min": [
        -33.36384963989258,
        6.2521772384643555,
        -27.73179817199707
      ],
      "type": "VEC3"
    },
    {
      "bufferView": 1,
      "byteOffset": 5504688,
      "componentType": 5126,
      "count": 65532,
      "max": [
        4.36643349530641e-05,
        0.0,
        1.0
      ],
      "min": [
        -4.302287561586127e-05,
        0.0,
        0.9999999403953552
      ],
      "type": "VEC3"
    },
    {
      "bufferView": 2,
      "byteOffset": 3145536,
      "componentType": 5126,
      "count": 65532,
      "max": [
        0.0,
        0.0,
        0.0,
        1.0
      ],
      "min": [
        0.0,
        0.0,
        0.0,
        1.0
      ],
      "type": "VEC4"
    },
    {
      "bufferView": 0,
      "byteOffset": 2353680,
      "componentType": 5125,
      "count": 196134,
      "type": "SCALAR"
    },
    {
      "bufferView": 1,
      "byteOffset": 6291072,
      "componentType": 5126,
      "count": 65532,
      "max": [
        29.970605850219727,
        12.037569999694824,
        26.26094627380371
      ],
      "min": [
        -33.32441329956055,
        5.482420444488525,
        -37.073509216308594
      ],
      "type": "VEC3"
    },
    {
      "bufferView": 1,
      "byteOffset": 7077456,
      "componentType": 5126,
      "count": 65532,
      "max": [
        3.536311487550847e-05,
        0.0,
        1.0
      ],
      "min": [
        -1.0,
        0.0,
        -7.079486385919154e-05
      ],
      "type": "VEC3"
    },
    {
      "bufferView": 2,
      "byteOffset": 4194048,
      "componentType": 5126,
      "count": 65532,
      "max": [
        0.0,
        0.0,
        0.0,
        1.0
      ],
      "min": [
        0.0,
        0.0,
        0.0,
        1.0
      ],
      "type": "VEC4"
    },
    {
      "bufferView": 0,
      "byteOffset": 3138216,
      "componentType": 5125,
      "count": 196140,
      "type": "SCALAR"
    },
    {
      "bufferView": 1,
      "byteOffset": 7863840,
      "componentType": 5126,
      "count": 35798,
      "max": [
        15.667679786682129,
        11.505431175231934,
        26.26094627380371
      ],
      "min": [
        -10.998900413513184,
        6.0145583152771,
        -5.487551212310791
      ],
      "type": "VEC3"
    },
    {
      "bufferView": 1,
      "byteOffset": 8293416,
      "componentType": 5126,
      "count": 35798,
      "max": [
        -0.9999999403953552,
        0.0,
        3.753766213776544e-05
      ],
      "min": [
        -1.0,
        0.0,
        -4.3671534513123333e-05
      ],
      "type": "VEC3"
    },
    {
      "bufferView": 2,
      "byteOffset": 5242560,
      "componentType": 5126,
      "count": 35798,
      "max": [
        0.0,
        0.0,
        0.0,
        1.0
      ],
      "min": [
        0.0,
        0.0,
        0.0,
        1.0
      ],
      "type": "VEC4"
    },
    {
      "bufferView": 0,
      "byteOffset": 3922776,
      "componentType": 5125,
      "count": 107148,
      "type": "SCALAR"
    },
    {
      "bufferView": 1,
      "byteOffset": 8722992,
      "componentType": 5126,
      "count": 65532,
      "max": [
        29.932281494140625,
        11.455917358398438,
        -5.333447456359863
      ],
      "min": [
        -33.323299407958984,
        5.953946590423584,
        -37.08194351196289
      ],
      "type": "VEC3"
    },
    {
      "bufferView": 1,
      "byteOffset": 9509376,
      "componentType": 5126,
      "count": 65532,
      "max": [
        -0.9999999403953552,
        0.0,
        7.084902608767152e-05
      ],
      "min": [
        -1.0,
        0.0,
        -7.051792636048049e-05
      ],
      "type": "VEC3"
    },
    {
      "bufferView": 2,
      "byteOffset": 5815328,
      "componentType": 5126,
      "count": 65532,
      "max": [
        0.6078431606292725,
        0.27450981736183167,
        0.007843137718737125,
        1.0
      ],
      "min": [
        0.10980392247438431,
        0.0,
        0.0,
        0.45490196347236633
      ],
      "type": "VEC4"
    },
    {
      "bufferView": 0,
      "byteOffset": 4351368,
      "componentType": 5125,
      "count": 196146,
      "type": "SCALAR"
    },
    {
      "bufferView": 1,
      "byteOffset": 10295760,
      "componentType": 5126,
      "count": 65532,
      "max": [
        29.971721649169922,
        11.153071403503418,
        26.25251007080078
      ],
      "min": [
        -1.77677583694458,
        6.2567925453186035,
        -37.08194351196289
      ],
      "type": "VEC3"
    },
    {
      "bufferView": 1,
      "byteOffset": 11082144,
      "componentType": 5126,
      "count": 65532,
      "max": [
        4.366823850432411e-05,
        0.0,
        1.0
      ],
      "min": [
        -1.0,
        0.0,
        -4.370709211798385e-05
      ],
      "type": "VEC3"
    },
    {
      "bufferView": 2,
      "byteOffset": 6863840,
      "componentType": 5126,
      "count": 65532,
      "max": [
        0.6196078658103943,
        0.29019609093666077,
        0.1882352977991104,
        1.0
      ],
      "min": [
        0.0,
        0.0,
        0.0,
        0.45490196347236633
      ],
      "type": "VEC4"
    },
    {
      "bufferView": 0,
      "byteOffset": 5135952,
      "componentType": 5125,
      "count": 196134,
      "type": "SCALAR"
    },
    {
      "bufferView": 1,
      "byteOffset": 11868528,
      "componentType": 5126,
      "count": 65532,
      "max": [
        29.971721649169922,
        10.472383499145508,
        26.213071823120117
      ],
      "min": [
        -33.362735748291016,
        6.937480449676514,
        -37.04250717163086
      ],
      "type": "VEC3"
    },
    {
      "bufferView": 1,
      "byteOffset": 12654912,
      "componentType": 5126,
      "count": 65532,
      "max": [
        4.3699590605683625e-05,
        0.0,
        1.0
      ],
      "min": [
        -4.36804439232219e-05,
        0.0,
        0.9999999403953552
      ],
      "type": "VEC3"
    },
    {
      "bufferView": 2,
      "byteOffset": 7912352,
      "componentType": 5126,
      "count": 65532,
      "max": [
        0.003921568859368563,
        0.21176470816135406,
        0.32549020648002625,
        1.0
      ],
      "min": [
        0.0,
        0.0,
        0.007843137718737125,
        0.45490196347236633
      ],
      "type": "VEC4"
    },
    {
      "bufferView": 0,
      "byteOffset": 5920488,
      "componentType": 5125,
      "count": 196140,
      "type": "SCALAR"
    },
    {
      "bufferView": 1,
      "byteOffset": 13441296,
      "componentType": 5126,
      "count": 65532,
      "max": [
        29.971721649169922,
        11.212749481201172,
        26.213071823120117
      ],
      "min": [
        -33.362735748291016,
        6.197113990783691,
        -27.740234375
      ],
      "type": "VEC3"
    },
    {
      "bufferView": 1,
      "byteOffset": 14227680,
      "componentType": 5126,
      "count": 65532,
      "max": [
        4.36643349530641e-05,
        0.0,
        1.0
      ],
      "min": [
        -4.302287561586127e-05,
        0.0,
        0.9999999403953552
      ],
      "type": "VEC3"
    },
    {
      "bufferView": 2,
      "byteOffset": 8960864,
      "componentType": 5126,
      "count": 65532,
      "max": [
        0.003921568859368563,
        0.21176470816135406,
        0.32549020648002625,
        1.0
      ],
      "min": [
        0.0,
        0.0,
        0.003921568859368563,
        1.0
      ],
      "type": "VEC4"
    },
    {
      "bufferView": 0,
      "byteOffset": 6705048,
      "componentType": 5125,
      "count": 196134,
      "type": "SCALAR"
    },
    {
      "bufferView": 1,
      "byteOffset": 15014064,
      "componentType": 5126,
      "count": 65532,
      "max": [
        29.971721649169922,
        11.98250675201416,
        26.25251007080078
      ],
      "min": [
        -33.323299407958984,
        5.427357196807861,
        -37.08194351196289
      ],
      "type": "VEC3"
    },
    {
      "bufferView": 1,
      "byteOffset": 15800448,
      "componentType": 5126,
      "count": 65532,
      "max": [
        3.536311487550847e-05,
        0.0,
        1.0
      ],
      "min": [
        -1.0,
        0.0,
        -7.079486385919154e-05
      ],
      "type": "VEC3"
    },
    {
      "bufferView": 2,
      "byteOffset": 10009376,
      "componentType": 5126,
      "count": 65532,
      "max": [
        0.5607843399047852,
        0.2862745225429535,
        0.20392157137393951,
        1.0
      ],
      "min": [
        0.0,
        0.0,
        0.0,
        1.0
      ],
      "type": "VEC4"
    },
    {
      "bufferView": 0,
      "byteOffset": 7489584,
      "componentType": 5125,
      "count": 196140,
      "type": "SCALAR"
    },
    {
      "bufferView": 1,
      "byteOffset": 16586832,
      "componentType": 5126,
      "count": 34918,
      "max": [
        15.66879653930664,
        11.45036792755127,
        26.25251007080078
      ],
      "min": [
        -10.377630233764648,
        5.9594950675964355,
        -5.495985984802246
      ],
      "type": "VEC3"
    },
    {
      "bufferView": 1,
      "byteOffset": 17005848,
      "componentType": 5126,
      "count": 34918,
      "max": [
        -0.9999999403953552,
        0.0,
        3.753766213776544e-05
      ],
      "min": [
        -1.0,
        0.0,
        -4.3671534513123333e-05
      ],
      "type": "VEC3"
    },
    {
      "bufferView": 2,
      "byteOffset": 11057888,
      "componentType": 5126,
      "count": 34918,
      "max": [
        0.6078431606292725,
        0.29019609093666077,
        0.11372549086809158,
        1.0
      ],
      "min": [
        0.05098039284348488,
        0.0,
        0.0,
        1.0
      ],
      "type": "VEC4"
    },
    {
      "bufferView": 0,
      "byteOffset": 8274144,
      "componentType": 5125,
      "count": 104514,
      "type": "SCALAR"
    },
    {
      "bufferView": 1,
      "byteOffset": 17424864,
      "componentType": 5126,
      "count": 65532,
      "max": [
        29.93116569519043,
        12.185687065124512,
        26.221508026123047
      ],
      "min": [
        -33.36384963989258,
        -0.7808657288551331,
        -37.073509216308594
      ],
      "type": "VEC3"
    },
    {
      "bufferView": 1,
      "byteOffset": 18211248,
      "componentType": 5126,
      "count": 65532,
      "max": [
        3.529906098265201e-05,
        0.0,
        1.0
      ],
      "min": [
        -1.0,
        0.0,
        -7.042438664939255e-05
      ],
      "type": "VEC3"
    },
    {
      "bufferView": 2,
      "byteOffset": 11616576,
      "componentType": 5126,
      "count": 65532,
      "max": [
        0.0,
        0.0,
        0.0,
        1.0
      ],
      "min": [
        0.0,
        0.0,
        0.0,
        1.0
      ],
      "type": "VEC4"
    },
    {
      "bufferView": 0,
      "byteOffset": 8692200,
      "componentType": 5125,
      "count": 196146,
      "type": "SCALAR"
    },
    {
      "bufferView": 1,
      "byteOffset": 18997632,
      "componentType": 5126,
      "count": 65532,
      "max": [
        29.970605850219727,
        4.4182586669921875,
        26.26094627380371
      ],
      "min": [
        -33.32441329956055,
        -0.4780200123786926,
        -37.073509216308594
      ],
      "type": "VEC3"
    },
    {
      "bufferView": 1,
      "byteOffset": 19784016,
      "componentType": 5126,
      "count": 65532,
      "max": [
        4.366826033219695e-05,
        0.0,
        1.0
      ],
      "min": [
        -1.0,
        0.0,
        -7.051791180856526e-05
      ],
      "type": "VEC3"
    },
    {
      "bufferView": 2,
      "byteOffset": 12665088,
      "componentType": 5126,
      "count": 65532,
      "max": [
        0.0,
        0.0,
        0.0,
        1.0
      ],
      "min": [
        0.0,
        0.0,
        0.0,
        1.0
      ],
      "type": "VEC4"
    },
    {
      "bufferView": 0,
      "byteOffset": 9476784,
      "componentType": 5125,
      "count": 196134,
      "type": "SCALAR"
    },
    {
      "bufferView": 1,
      "byteOffset": 20570400,
      "componentType": 5126,
      "count": 65532,
      "max": [
        29.970605850219727,
        3.7375707626342773,
        26.221508026123047
      ],
      "min": [
        -33.36384963989258,
        0.20266801118850708,
        -37.03407287597656
      ],
      "type": "VEC3"
    },
    {
      "bufferView": 1,
      "byteOffset": 21356784,
      "componentType": 5126,
      "count": 65532,
      "max": [
        4.369960515759885e-05,
        0.0,
        1.0
      ],
      "min": [
        -4.368046938907355e-05,
        0.0,
        0.9999999403953552
      ],
      "type": "VEC3"
    },
    {
      "bufferView": 2,
      "byteOffset": 13713600,
      "componentType": 5126,
      "count": 65532,
      "max": [
        0.0,
        0.0,
        0.0,
        1.0
      ],
      "min": [
        0.0,
        0.0,
        0.0,
        1.0
      ],
      "type": "VEC4"
    },
    {
      "bufferView": 0,
      "byteOffset": 10261320,
      "componentType": 5125,
      "count": 196140,
      "type": "SCALAR"
    },
    {
      "bufferView": 1,
      "byteOffset": 22143168,
      "componentType": 5126,
      "count": 65532,
      "max": [
        29.970605850219727,
        4.4779372215271,
        26.221508026123047
      ],
      "min": [
        -33.36384963989258,
        -0.5376983284950256,
        -27.73179817199707
      ],
      "type": "VEC3"
    },
    {
      "bufferView": 1,
      "byteOffset": 22929552,
      "componentType": 5126,
      "count": 65532,
      "max": [
        4.3664364056894556e-05,
        0.0,
        1.0
      ],
      "min": [
        -4.30228938057553e-05,
        0.0,
        0.9999999403953552
      ],
      "type": "VEC3"
    },
    {
      "bufferView": 2,
      "byteOffset": 14762112,
      "componentType": 5126,
      "count": 65532,
      "max": [
        0.0,
        0.0,
        0.0,
        1.0
      ],
      "min": [
        0.0,
        0.0,
        0.0,
        1.0
      ],
      "type": "VEC4"
    },
    {
      "bufferView": 0,
      "byteOffset": 11045880,
      "componentType": 5125,
      "count": 196134,
      "type": "SCALAR"
    },
    {
      "bufferView": 1,
      "byteOffset": 23715936,
      "componentType": 5126,
      "count": 65532,
      "max": [
        29.970605850219727,
        5.24769401550293,
        26.26094627380371
      ],
      "min": [
        -33.32441329956055,
        -1.3074554204940796,
        -37.073509216308594
      ],
      "type": "VEC3"
    },
    {
      "bufferView": 1,
      "byteOffset": 24502320,
      "componentType": 5126,
      "count": 65532,
      "max": [
        3.536310759955086e-05,
        0.0,
        1.0
      ],
      "min": [
        -1.0,
        0.0,
        -7.079487113514915e-05
      ],
      "type": "VEC3"
    },
    {
      "bufferView": 2,
      "byteOffset": 15810624,
      "componentType": 5126,
      "count": 65532,
      "max": [
        0.0,
        0.0,
        0.0,
        1.0
      ],
      "min": [
        0.0,
        0.0,
        0.0,
        1.0
      ],
      "type": "VEC4"
    },
    {
      "bufferView": 0,
      "byteOffset": 11830416,
      "componentType": 5125,
      "count": 196140,
      "type": "SCALAR"
    },
    {
      "bufferView": 1,
      "byteOffset": 25288704,
      "componentType": 5126,
      "count": 35798,
      "max": [
        15.667679786682129,
        4.7155561447143555,
        26.26094627380371
      ],
      "min": [
        -10.998900413513184,
        -0.7753170132637024,
        -5.487551212310791
      ],
      "type": "VEC3"
    },
    {
      "bufferView": 1,
      "byteOffset": 25718280,
      "componentType": 5126,
      "count": 35798,
      "max": [
        -0.9999999403953552,
        0.0,
        3.753766213776544e-05
      ],
      "min": [
        -1.0,
        0.0,
        -4.367156361695379e-05
      ],
      "type": "VEC3"
    },
    {
      "bufferView": 2,
      "byteOffset": 16859136,
      "componentType": 5126,
      "count": 35798,
      "max": [
        0.0,
        0.0,
        0.0,
        1.0
      ],
      "min": [
        0.0,
        0.0,
        0.0,
        1.0
      ],
      "type": "VEC4"
    },
    {
      "bufferView": 0,
      "byteOffset": 12614976,
      "componentType": 5125,
      "count": 107148,
      "type": "SCALAR"
    },
    {
      "bufferView": 1,
      "byteOffset": 26147856,
      "componentType": 5126,
      "count": 65532,
      "max": [
        29.932281494140625,
        4.776167869567871,
        -5.333447456359863
      ],
      "min": [
        -33.323299407958984,
        -0.725802481174469,
        -37.08194351196289
      ],
      "type": "VEC3"
    },
    {
      "bufferView": 1,
      "byteOffset": 26934240,
      "componentType": 5126,
      "count": 65532,
      "max": [
        -0.9999999403953552,
        0.0,
        7.084904063958675e-05
      ],
      "min": [
        -1.0,
        0.0,
        -7.051792636048049e-05
      ],
      "type": "VEC3"
    },
    {
      "bufferView": 2,
      "byteOffset": 17431904,
      "componentType": 5126,
      "count": 65532,
      "max": [
        0.6078431606292725,
        0.27450981736183167,
        0.007843137718737125,
        1.0
      ],
      "min": [
        0.10980392247438431,
        0.0,
        0.0,
        0.45490196347236633
      ],
      "type": "VEC4"
    },
    {
      "bufferView": 0,
      "byteOffset": 13043568,
      "componentType": 5125,
      "count": 196146,
      "type": "SCALAR"
    },
    {
      "bufferView": 1,
      "byteOffset": 27720624,
      "componentType": 5126,
      "count": 65532,
      "max": [
        29.971721649169922,
        4.473321914672852,
        26.25251007080078
      ],
      "min": [
        -1.77677583694458,
        -0.4229567348957062,
        -37.08194351196289
      ],
      "type": "VEC3"
    },
    {
      "bufferView": 1,
      "byteOffset": 28507008,
      "componentType": 5126,
      "count": 65532,
      "max": [
        4.366826397017576e-05,
        0.0,
        1.0
      ],
      "min": [
        -1.0,
        0.0,
        -4.370712485979311e-05
      ],
      "type": "VEC3"
    },
    {
      "bufferView": 2,
      "byteOffset": 18480416,
      "componentType": 5126,
      "count": 65532,
      "max": [
        0.6196078658103943,
        0.29019609093666077,
        0.1882352977991104,
        1.0
      ],
      "min": [
        0.0,
        0.0,
        0.0,
        0.45490196347236633
      ],
      "type": "VEC4"
    },
    {
      "bufferView": 0,
      "byteOffset": 13828152,
      "componentType": 5125,
      "count": 196134,
      "type": "SCALAR"
    },
    {
      "bufferView": 1,
      "byteOffset": 29293392,
      "componentType": 5126,
      "count": 65532,
      "max": [
        29.971721649169922,
        3.7926340103149414,
        26.213071823120117
      ],
      "min": [
        -33.362735748291016,
        0.25773128867149353,
        -37.04250717163086
      ],
      "type": "VEC3"
    },
    {
      "bufferView": 1,
      "byteOffset": 30079776,
      "componentType": 5126,
      "count": 65532,
      "max": [
        4.369960879557766e-05,
        0.0,
        1.0
      ],
      "min": [
        -4.3680476665031165e-05,
        0.0,
        0.9999999403953552
      ],
      "type": "VEC3"
    },
    {
      "bufferView": 2,
      "byteOffset": 19528928,
      "componentType": 5126,
      "count": 65532,
      "max": [
        0.003921568859368563,
        0.21176470816135406,
        0.32549020648002625,
        1.0
      ],
      "min": [
        0.0,
        0.0,
        0.007843137718737125,
        0.45490196347236633
      ],
      "type": "VEC4"
    },
    {
      "bufferView": 0,
      "byteOffset": 14612688,
      "componentType": 5125,
      "count": 196140,
      "type": "SCALAR"
    },
    {
      "bufferView": 1,
      "byteOffset": 30866160,
      "componentType": 5126,
      "count": 65532,
      "max": [
        29.971721649169922,
        4.533000469207764,
        26.213071823120117
      ],
      "min": [
        -33.362735748291016,
        -0.4826350510120392,
        -27.740234375
      ],
      "type": "VEC3"
    },
    {
      "bufferView": 1,
      "byteOffset": 31652544,
      "componentType": 5126,
      "count": 65532,
      "max": [
        4.366436769487336e-05,
        0.0,
        1.0
      ],
      "min": [
        -4.302289744373411e-05,
        0.0,
        0.9999999403953552
      ],
      "type": "VEC3"
    },
    {
      "bufferView": 2,
      "byteOffset": 20577440,
      "componentType": 5126,
      "count": 65532,
      "max": [
        0.003921568859368563,
        0.21176470816135406,
        0.32549020648002625,
        1.0
      ],
      "min": [
        0.0,
        0.0,
        0.003921568859368563,
        1.0
      ],
      "type": "VEC4"
    },
    {
      "bufferView": 0,
      "byteOffset": 15397248,
      "componentType": 5125,
      "count": 196134,
      "type": "SCALAR"
    },
    {
      "bufferView": 1,
      "byteOffset": 32438928,
      "componentType": 5126,
      "count": 65532,
      "max": [
        29.971721649169922,
        5.302757263183594,
        26.25251007080078
      ],
      "min": [
        -33.323299407958984,
        -1.252392053604126,
        -37.08194351196289
      ],
      "type": "VEC3"
    },
    {
      "bufferView": 1,
      "byteOffset": 33225312,
      "componentType": 5126,
      "count": 65532,
      "max": [
        3.536310396157205e-05,
        0.0,
        1.0
      ],
      "min": [
        -1.0,
        0.0,
        -7.079487113514915e-05
      ],
      "type": "VEC3"
    },
    {
      "bufferView": 2,
      "byteOffset": 21625952,
      "componentType": 5126,
      "count": 65532,
      "max": [
        0.5607843399047852,
        0.2862745225429535,
        0.20392157137393951,
        1.0
      ],
      "min": [
        0.0,
        0.0,
        0.0,
        1.0
      ],
      "type": "VEC4"
    },
    {
      "bufferView": 0,
      "byteOffset": 16181784,
      "componentType": 5125,
      "count": 196140,
      "type": "SCALAR"
    },
    {
      "bufferView": 1,
      "byteOffset": 34011696,
      "componentType": 5126,
      "count": 34918,
      "max": [
        15.66879653930664,
        4.7706193923950195,
        26.25251007080078
      ],
      "min": [
        -10.377630233764648,
        -0.7202537655830383,
        -5.495985984802246
      ],
      "type": "VEC3"
    },
    {
      "bufferView": 1,
      "byteOffset": 34430712,
      "componentType": 5126,
      "count": 34918,
      "max": [
        -0.9999999403953552,
        0.0,
        3.753766213776544e-05
      ],
      "min": [
        -1.0,
        0.0,
        -4.36715672549326e-05
      ],
      "type": "VEC3"
    },
    {
      "bufferView": 2,
      "byteOffset": 22674464,
      "componentType": 5126,
      "count": 34918,
      "max": [
        0.6078431606292725,
        0.29019609093666077,
        0.11372549086809158,
        1.0
      ],
      "min": [
        0.05098039284348488,
        0.0,
        0.0,
        1.0
      ],
      "type": "VEC4"
    },
    {
      "bufferView": 0,
      "byteOffset": 16966344,
      "componentType": 5125,
      "count": 104514,
      "type": "SCALAR"
    }
  ],
  "asset": {
    "extras": {
      "author": "jamil (https://sketchfab.com/jamil)",
      "license": "CC-BY-4.0 (http://creativecommons.org/licenses/by/4.0/)",
      "source": "https://sketchfab.com/3d-models/vr-bees007a-bdc1a9ecb9924be0a177171aa1335e06",
      "title": "Vr-bees007A"
    },
    "generator": "Sketchfab-12.65.0",
    "version": "2.0"
  },
  "bufferViews": [
    {
      "buffer": 0,
      "byteLength": 17384400,
      "name": "floatBufferViews",
      "target": 34963
    },
    {
      "buffer": 0,
      "byteLength": 34849728,
      "byteOffset": 17384400,
      "byteStride": 12,
      "name": "floatBufferViews",
      "target": 34962
    },
    {
      "buffer": 0,
      "byteLength": 23233152,
      "byteOffset": 52234128,
      "byteStride": 16,
      "name": "floatBufferViews",
      "target": 34962
    }
  ],
  "buffers": [
    {
      "byteLength": 75467280,
      "uri": "scene.bin"
    }
  ],
  "extensionsUsed": [
    "KHR_materials_unlit"
  ],
  "materials": [
    {
      "doubleSided": true,
      "extensions": {
        "KHR_materials_unlit": {}
      },
      "name": "NewLayer7_double",
      "pbrMetallicRoughness": {
        "baseColorFactor": [
          0.8,
          0.8,
          0.8,
          1.0
        ],
        "metallicFactor": 0.0
      }
    },
    {
      "doubleSided": true,
      "extensions": {
        "KHR_materials_unlit": {}
      },
      "name": "NewLayer6_double",
      "pbrMetallicRoughness": {
        "baseColorFactor": [
          0.8,
          0.8,
          0.8,
          1.0
        ],
        "metallicFactor": 0.0
      }
    },
    {
      "doubleSided": true,
      "extensions": {
        "KHR_materials_unlit": {}
      },
      "name": "NewLayer7_double_0",
      "pbrMetallicRoughness": {
        "baseColorFactor": [
          0.8,
          0.8,
          0.8,
          1.0
        ],
        "metallicFactor": 0.0
      }
    },
    {
      "doubleSided": true,
      "extensions": {
        "KHR_materials_unlit": {}
      },
      "name": "NewLayer6_double_0",
      "pbrMetallicRoughness": {
        "baseColorFactor": [
          0.8,
          0.8,
          0.8,
          1.0
        ],
        "metallicFactor": 0.0
      }
    }
  ],
  "meshes": [
    {
      "name": "NewLayer7_0000_NewLayer7_double_0",
      "primitives": [
        {
          "attributes": {
            "COLOR_0": 2,
            "NORMAL": 1,
            "POSITION": 0
          },
          "indices": 3,
          "material": 0,
          "mode": 4
        }
      ]
    },
    {
      "name": "NewLayer7_0000_NewLayer7_double_0",
      "primitives": [
        {
          "attributes": {
            "COLOR_0": 6,
            "NORMAL": 5,
            "POSITION": 4
          },
          "indices": 7,
          "material": 0,
          "mode": 4
        }
      ]
    },
    {
      "name": "NewLayer7_0000_NewLayer7_double_0",
      "primitives": [
        {
          "attributes": {
            "COLOR_0": 10,
            "NORMAL": 9,
            "POSITION": 8
          },
          "indices": 11,
          "material": 0,
          "mode": 4
        }
      ]
    },
    {
      "name": "NewLayer7_0000_NewLayer7_double_0",
      "primitives": [
        {
          "attributes": {
            "COLOR_0": 14,
            "NORMAL": 13,
            "POSITION": 12
          },
          "indices": 15,
          "material": 0,
          "mode": 4
        }
      ]
    },
    {
      "name": "NewLayer7_0000_NewLayer7_double_0",
      "primitives": [
        {
          "attributes": {
            "COLOR_0": 18,
            "NORMAL": 17,
            "POSITION": 16
          },
          "indices": 19,
          "material": 0,
          "mode": 4
        }
      ]
    },
    {
      "name": "NewLayer7_0000_NewLayer7_double_0",
      "primitives": [
        {
          "attributes": {
            "COLOR_0": 22,
            "NORMAL": 21,
            "POSITION": 20
          },
          "indices": 23,
          "material": 0,
          "mode": 4
        }
      ]
    },
    {
      "name": "NewLayer6_0000_NewLayer6_double_0",
      "primitives": [
        {
          "attributes": {
            "COLOR_0": 26,
            "NORMAL": 25,
            "POSITION": 24
          },
          "indices": 27,
          "material": 1,
          "mode": 4
        }
      ]
    },
    {
      "name": "NewLayer6_0000_NewLayer6_double_0",
      "primitives": [
        {
          "attributes": {
            "COLOR_0": 30,
            "NORMAL": 29,
            "POSITION": 28
          },
          "indices": 31,
          "material": 1,
          "mode": 4
        }
      ]
    },
    {
      "name": "NewLayer6_0000_NewLayer6_double_0",
      "primitives": [
        {
          "attributes": {
            "COLOR_0": 34,
            "NORMAL": 33,
            "POSITION": 32
          },
          "indices": 35,
          "material": 1,
          "mode": 4
        }
      ]
    },
    {
      "name": "NewLayer6_0000_NewLayer6_double_0",
      "primitives": [
        {
          "attributes": {
            "COLOR_0": 38,
            "NORMAL": 37,
            "POSITION": 36
          },
          "indices": 39,
          "material": 1,
          "mode": 4
        }
      ]
    },
    {
      "name": "NewLayer6_0000_NewLayer6_double_0",
      "primitives": [
        {
          "attributes": {
            "COLOR_0": 42,
            "NORMAL": 41,
            "POSITION": 40
          },
          "indices": 43,
          "material": 1,
          "mode": 4
        }
      ]
    },
    {
      "name": "NewLayer6_0000_NewLayer6_double_0",
      "primitives": [
        {
          "attributes": {
            "COLOR_0": 46,
            "NORMAL": 45,
            "POSITION": 44
          },
          "indices": 47,
          "material": 1,
          "mode": 4
        }
      ]
    },
    {
      "name": "NewLayer7_0000_NewLayer7_double_0",
      "primitives": [
        {
          "attributes": {
            "COLOR_0": 50,
            "NORMAL": 49,
            "POSITION": 48
          },
          "indices": 51,
          "material": 2,
          "mode": 4
        }
      ]
    },
    {
      "name": "NewLayer7_0000_NewLayer7_double_0",
      "primitives": [
        {
          "attributes": {
            "COLOR_0": 54,
            "NORMAL": 53,
            "POSITION": 52
          },
          "indices": 55,
          "material": 2,
          "mode": 4
        }
      ]
    },
    {
      "name": "NewLayer7_0000_NewLayer7_double_0",
      "primitives": [
        {
          "attributes": {
            "COLOR_0": 58,
            "NORMAL": 57,
            "POSITION": 56
          },
          "indices": 59,
          "material": 2,
          "mode": 4
        }
      ]
    },
    {
      "name": "NewLayer7_0000_NewLayer7_double_0",
      "primitives": [
        {
          "attributes": {
            "COLOR_0": 62,
            "NORMAL": 61,
            "POSITION": 60
          },
          "indices": 63,
          "material": 2,
          "mode": 4
        }
      ]
    },
    {
      "name": "NewLayer7_0000_NewLayer7_double_0",
      "primitives": [
        {
          "attributes": {
            "COLOR_0": 66,
            "NORMAL": 65,
            "POSITION": 64
          },
          "indices": 67,
          "material": 2,
          "mode": 4
        }
      ]
    },
    {
      "name": "NewLayer7_0000_NewLayer7_double_0",
      "primitives": [
        {
          "attributes": {
            "COLOR_0": 70,
            "NORMAL": 69,
            "POSITION": 68
          },
          "indices": 71,
          "material": 2,
          "mode": 4
        }
      ]
    },
    {
      "name": "NewLayer6_0000_NewLayer6_double_0",
      "primitives": [
        {
          "attributes": {
            "COLOR_0": 74,
            "NORMAL": 73,
            "POSITION": 72
          },
          "indices": 75,
          "material": 3,
          "mode": 4
        }
      ]
    },
    {
      "name": "NewLayer6_0000_NewLayer6_double_0",
      "primitives": [
        {
          "attributes": {
            "COLOR_0": 78,
            "NORMAL": 77,
            "POSITION": 76
          },
          "indices": 79,
          "material": 3,
          "mode": 4
        }
      ]
    },
    {
      "name": "NewLayer6_0000_NewLayer6_double_0",
      "primitives": [
        {
          "attributes": {
            "COLOR_0": 82,
            "NORMAL": 81,
            "POSITION": 80
          },
          "indices": 83,
          "material": 3,
          "mode": 4
        }
      ]
    },
    {
      "name": "NewLayer6_0000_NewLayer6_double_0",
      "primitives": [
        {
          "attributes": {
            "COLOR_0": 86,
            "NORMAL": 85,
            "POSITION": 84
          },
          "indices": 87,
          "material": 3,
          "mode": 4
        }
      ]
    },
    {
      "name": "NewLayer6_0000_NewLayer6_double_0",
      "primitives": [
        {
          "attributes": {
            "COLOR_0": 90,
            "NORMAL": 89,
            "POSITION": 88
          },
          "indices": 91,
          "material": 3,
          "mode": 4
        }
      ]
    },
    {
      "name": "NewLayer6_0000_NewLayer6_double_0",
      "primitives": [
        {
          "attributes": {
            "COLOR_0": 94,
            "NORMAL": 93,
            "POSITION": 92
          },
          "indices": 95,
          "material": 3,
          "mode": 4
        }
      ]
    }
  ],
  "nodes": [
    {
      "children": [
        1
      ],
      "matrix": [
        1.0,
        0.0,
        0.0,
        0.0,
        0.0,
        2.220446049250313e-16,
        -1.0,
        0.0,
        0.0,
        1.0,
        2.220446049250313e-16,
        0.0,
        0.0,
        0.0,
        0.0,
        1.0
      ],
      "name": "Sketchfab_model"
    },
    {
      "children": [
        2
      ],
      "matrix": [
        1.0,
        0.0,
        0.0,
        0.0,
        0.0,
        0.0,
        1.0,
        0.0,
        0.0,
        -1.0,
        0.0,
        0.0,
        0.0,
        0.0,
        0.0,
        1.0
      ],
      "name": "a279416d87db4cbabb0fc2e599d673ea.fbx"
    },
    {
      "children": [
        3
      ],
      "name": "RootNode"
    },
    {
      "children": [
        4
      ],
      "name": "BakedMesh"
    },
    {
      "children": [
        5
      ],
      "name": "Root"
    },
    {
      "children": [
        6,
        23
      ],
      "name": "NewGroup0"
    },
    {
      "children": [
        7,
        15
      ],
      "name": "NewGroup2"
    },
    {
      "children": [
        8
      ],
      "name": "NewLayer7"
    },
    {
      "children": [
        9,
        10,
        11,
        12,
        13,
        14
      ],
      "name": "NewLayer7_0000"
    },
    {
      "mesh": 0,
      "name": "NewLayer7_0000_NewLayer7_double_0"
    },
    {
      "mesh": 1,
      "name": "NewLayer7_0000_NewLayer7_double_0"
    },
    {
      "mesh": 2,
      "name": "NewLayer7_0000_NewLayer7_double_0"
    },
    {
      "mesh": 3,
      "name": "NewLayer7_0000_NewLayer7_double_0"
    },
    {
      "mesh": 4,
      "name": "NewLayer7_0000_NewLayer7_double_0"
    },
    {
      "mesh": 5,
      "name": "NewLayer7_0000_NewLayer7_double_0"
    },
    {
      "children": [
        16
      ],
      "name": "NewLayer6"
    },
    {
      "children": [
        17,
        18,
        19,
        20,
        21,
        22
      ],
      "name": "NewLayer6_0000"
    },
    {
      "mesh": 6,
      "name": "NewLayer6_0000_NewLayer6_double_0"
    },
    {
      "mesh": 7,
      "name": "NewLayer6_0000_NewLayer6_double_0"
    },
    {
      "mesh": 8,
      "name": "NewLayer6_0000_NewLayer6_double_0"
    },
    {
      "mesh": 9,
      "name": "NewLayer6_0000_NewLayer6_double_0"
    },
    {
      "mesh": 10,
      "name": "NewLayer6_0000_NewLayer6_double_0"
    },
    {
      "mesh": 11,
      "name": "NewLayer6_0000_NewLayer6_double_0"
    },
    {
      "children": [
        24,
        32
      ],
      "name": "NewGroup1"
    },
    {
      "children": [
        25
      ],
      "name": "NewLayer7"
    },
    {
      "children": [
        26,
        27,
        28,
        29,
        30,
        31
      ],
      "name": "NewLayer7_0000"
    },
    {
      "mesh": 12,
      "name": "NewLayer7_0000_NewLayer7_double_0"
    },
    {
      "mesh": 13,
      "name": "NewLayer7_0000_NewLayer7_double_0"
    },
    {
      "mesh": 14,
      "name": "NewLayer7_0000_NewLayer7_double_0"
    },
    {
      "mesh": 15,
      "name": "NewLayer7_0000_NewLayer7_double_0"
    },
    {
      "mesh": 16,
      "name": "NewLayer7_0000_NewLayer7_double_0"
    },
    {
      "mesh": 17,
      "name": "NewLayer7_0000_NewLayer7_double_0"
    },
    {
      "children": [
        33
      ],
      "name": "NewLayer6"
    },
    {
      "children": [
        34,
        35,
        36,
        37,
        38,
        39
      ],
      "name": "NewLayer6_0000"
    },
    {
      "mesh": 18,
      "name": "NewLayer6_0000_NewLayer6_double_0"
    },
    {
      "mesh": 19,
      "name": "NewLayer6_0000_NewLayer6_double_0"
    },
    {
      "mesh": 20,
      "name": "NewLayer6_0000_NewLayer6_double_0"
    },
    {
      "mesh": 21,
      "name": "NewLayer6_0000_NewLayer6_double_0"
    },
    {
      "mesh": 22,
      "name": "NewLayer6_0000_NewLayer6_double_0"
    },
    {
      "mesh": 23,
      "name": "NewLayer6_0000_NewLayer6_double_0"
    }
  ],
  "scene": 0,
  "scenes": [
    {
      "name": "Sketchfab_Scene",
      "nodes": [
        0
      ]
    }
  ]
}
