{
  "accessors": [
    {
      "bufferView": 2,
      "componentType": 5126,
      "count": 65532,
      "max": [
        8.272488594055176,
        -1.635855793952942,
        13.523694038391113
      ],
      "min": [
        -4.759541988372803,
        -16.886972427368164,
        -7.833129405975342
      ],
      "type": "VEC3"
    },
    {
      "bufferView": 2,
      "byteOffset": 786384,
      "componentType": 5126,
      "count": 65532,
      "max": [
        0.999996542930603,
        0.9999657273292542,
        0.9999759197235107
      ],
      "min": [
        -0.9999127388000488,
        -0.9999788403511047,
        -0.9993780851364136
      ],
      "type": "VEC3"
    },
    {
      "bufferView": 3,
      "componentType": 5126,
      "count": 65532,
      "max": [
        0.9745007753372192,
        0.9994988441467285,
        0.9999996423721313,
        1.0
      ],
      "min": [
        -0.9997562170028687,
        -0.9997895359992981,
        -0.9998313784599304,
        1.0
      ],
      "type": "VEC4"
    },
    {
      "bufferView": 1,
      "componentType": 5126,
      "count": 65532,
      "max": [
        0.9770900011062622,
        0.9691100120544434
      ],
      "min": [
        0.22578999400138855,
        0.2578499913215637
      ],
      "type": "VEC2"
    },
    {
      "bufferView": 0,
      "componentType": 5125,
      "count": 361665,
      "type": "SCALAR"
    },
    {
      "bufferView": 2,
      "byteOffset": 1572768,
      "componentType": 5126,
      "count": 65532,
      "max": [
        5.177793025970459,
        -5.861784934997559,
        6.713483810424805
      ],
      "min": [
        -3.5507631301879883,
        -16.919321060180664,
        -15.28940200805664
      ],
      "type": "VEC3"
    },
    {
      "bufferView": 2,
      "byteOffset": 2359152,
      "componentType": 5126,
      "count": 65532,
      "max": [
        0.999921441078186,
        0.9677723050117493,
        0.999983012676239
      ],
      "min": [
        -0.9986916780471802,
        -0.9999998211860657,
        -0.9987534284591675
      ],
      "type": "VEC3"
    },
    {
      "bufferView": 3,
      "byteOffset": 1048512,
      "componentType": 5126,
      "count": 65532,
      "max": [
        0.9428251385688782,
        0.9983826279640198,
        0.999995768070221,
        1.0
      ],
      "min": [
        -0.9996446371078491,
        -0.9997648000717163,
        -0.9998540878295898,
        1.0
      ],
      "type": "VEC4"
    },
    {
      "bufferView": 1,
      "byteOffset": 524256,
      "componentType": 5126,
      "count": 65532,
      "max": [
        0.8982800245285034,
        0.923550009727478
      ],
      "min": [
        0.5765900015830994,
        0.05683999881148338
      ],
      "type": "VEC2"
    },
    {
      "bufferView": 0,
      "byteOffset": 1446660,
      "componentType": 5125,
      "count": 378234,
      "type": "SCALAR"
    },
    {
      "bufferView": 2,
      "byteOffset": 3145536,
      "componentType": 5126,
      "count": 65532,
      "max": [
        8.162822723388672,
        -1.9204310178756714,
        13.852363586425781
      ],
      "min": [
        -3.729788064956665,
        -16.215866088867188,
        -14.832208633422852
      ],
      "type": "VEC3"
    },
    {
      "bufferView": 2,
      "byteOffset": 3931920,
      "componentType": 5126,
      "count": 65532,
      "max": [
        0.9999985694885254,
        0.9999472498893738,
        0.9999943971633911
      ],
      "min": [
        -0.9996159672737122,
        -0.9999998211860657,
        -0.9997296333312988
      ],
      "type": "VEC3"
    },
    {
      "bufferView": 3,
      "byteOffset": 2097024,
      "componentType": 5126,
      "count": 65532,
      "max": [
        0.9734886884689331,
        0.9975122213363647,
        0.9999995827674866,
        1.0
      ],
      "min": [
        -0.9999783039093018,
        -0.9997648000717163,
        -0.999976396560669,
        -1.0
      ],
      "type": "VEC4"
    },
    {
      "bufferView": 1,
      "byteOffset": 1048512,
      "componentType": 5126,
      "count": 65532,
      "max": [
        0.891319990158081,
        0.5203499794006348
      ],
      "min": [
        0.2994599938392639,
        0.09933999925851822
      ],
      "type": "VEC2"
    },
    {
      "bufferView": 0,
      "byteOffset": 2959596,
      "componentType": 5125,
      "count": 360051,
      "type": "SCALAR"
    },
    {
      "bufferView": 2,
      "byteOffset": 4718304,
      "componentType": 5126,
      "count": 65532,
      "max": [
        6.7149882316589355,
        -1.3435043096542358,
        12.803045272827148
      ],
      "min": [
        -5.981601238250732,
        -14.866236686706543,
        -13.94970989227295
      ],
      "type": "VEC3"
    },
    {
      "bufferView": 2,
      "byteOffset": 5504688,
      "componentType": 5126,
      "count": 65532,
      "max": [
        0.9993447661399841,
        0.9999608397483826,
        0.9999284148216248
      ],
      "min": [
        -0.9999583959579468,
        -0.9999991655349731,
        -0.9999973177909851
      ],
      "type": "VEC3"
    },
    {
      "bufferView": 3,
      "byteOffset": 3145536,
      "componentType": 5126,
      "count": 65532,
      "max": [
        0.9870274066925049,
        0.999970018863678,
        0.9999144077301025,
        1.0
      ],
      "min": [
        -0.9999876618385315,
        -0.9999301433563232,
        -0.9999502301216125,
        -1.0
      ],
      "type": "VEC4"
    },
    {
      "bufferView": 1,
      "byteOffset": 1572768,
      "componentType": 5126,
      "count": 65532,
      "max": [
        0.9544000029563904,
        0.4959700107574463
      ],
      "min": [
        0.3734099864959717,
        0.014349999837577343
      ],
      "type": "VEC2"
    },
    {
      "bufferView": 0,
      "byteOffset": 4399800,
      "componentType": 5125,
      "count": 365943,
      "type": "SCALAR"
    },
    {
      "bufferView": 2,
      "byteOffset": 6291072,
      "componentType": 5126,
      "count": 65532,
      "max": [
        3.6775524616241455,
        -1.2507967948913574,
        10.194086074829102
      ],
      "min": [
        -5.904508590698242,
        -14.925463676452637,
        -6.19549560546875
      ],
      "type": "VEC3"
    },
    {
      "bufferView": 2,
      "byteOffset": 7077456,
      "componentType": 5126,
      "count": 65532,
      "max": [
        0.9998907446861267,
        0.9951123595237732,
        0.9999356269836426
      ],
      "min": [
        -0.9999993443489075,
        -0.9999963045120239,
        -0.9999532103538513
      ],
      "type": "VEC3"
    },
    {
      "bufferView": 3,
      "byteOffset": 4194048,
      "componentType": 5126,
      "count": 65532,
      "max": [
        0.9972084164619446,
        0.999968945980072,
        0.9998835921287537,
        1.0
      ],
      "min": [
        -0.9999961256980896,
        -0.9999855756759644,
        -0.999944806098938,
        1.0
      ],
      "type": "VEC4"
    },
    {
      "bufferView": 1,
      "byteOffset": 2097024,
      "componentType": 5126,
      "count": 65532,
      "max": [
        0.9997199773788452,
        0.5248799920082092
      ],
      "min": [
        0.2050500065088272,
        0.014419999904930592
      ],
      "type": "VEC2"
    },
    {
      "bufferView": 0,
      "byteOffset": 5863572,
      "componentType": 5125,
      "count": 373221,
      "type": "SCALAR"
    },
    {
      "bufferView": 2,
      "byteOffset": 7863840,
      "componentType": 5126,
      "count": 65532,
      "max": [
        3.9796767234802246,
        -6.593618392944336,
        11.135978698730469
      ],
      "min": [
        -6.1387038230896,
        -19.409841537475586,
        -18.194990158081055
      ],
      "type": "VEC3"
    },
    {
      "bufferView": 2,
      "byteOffset": 8650224,
      "componentType": 5126,
      "count": 65532,
      "max": [
        0.9999706149101257,
        0.9968382716178894,
        0.9991546869277954
      ],
      "min": [
        -0.9999997019767761,
        -0.9999980926513672,
        -0.9999905824661255
      ],
      "type": "VEC3"
    },
    {
      "bufferView": 3,
      "byteOffset": 5242560,
      "componentType": 5126,
      "count": 65532,
      "max": [
        0.9999973773956299,
        0.9991730451583862,
        0.9999591708183289,
        1.0
      ],
      "min": [
        -0.9996632933616638,
        -0.9992665648460388,
        -0.9997745156288147,
        1.0
      ],
      "type": "VEC4"
    },
    {
      "bufferView": 1,
      "byteOffset": 2621280,
      "componentType": 5126,
      "count": 65532,
      "max": [
        0.805649995803833,
        0.8875499963760376
      ],
      "min": [
        0.13219000399112701,
        0.010230000130832195
      ],
      "type": "VEC2"
    },
    {
      "bufferView": 0,
      "byteOffset": 7356456,
      "componentType": 5125,
      "count": 360042,
      "type": "SCALAR"
    },
    {
      "bufferView": 2,
      "byteOffset": 9436608,
      "componentType": 5126,
      "count": 65532,
      "max": [
        4.260915756225586,
        -13.47119426727295,
        7.840682029724121
      ],
      "min": [
        -3.9960641860961914,
        -17.42350196838379,
        0.3789253830909729
      ],
      "type": "VEC3"
    },
    {
      "bufferView": 2,
      "byteOffset": 10222992,
      "componentType": 5126,
      "count": 65532,
      "max": [
        0.9999672174453735,
        0.9999858140945435,
        0.9999688863754272
      ],
      "min": [
        -0.9999589323997498,
        -0.9999470114707947,
        -0.9999915957450867
      ],
      "type": "VEC3"
    },
    {
      "bufferView": 3,
      "byteOffset": 6291072,
      "componentType": 5126,
      "count": 65532,
      "max": [
        0.9999807476997375,
        0.9999433159828186,
        0.9999591112136841,
        1.0
      ],
      "min": [
        -0.9909189939498901,
        -0.9999930262565613,
        -0.9999774098396301,
        1.0
      ],
      "type": "VEC4"
    },
    {
      "bufferView": 1,
      "byteOffset": 3145536,
      "componentType": 5126,
      "count": 65532,
      "max": [
        0.8562099933624268,
        0.8216599822044373
      ],
      "min": [
        0.33636999130249023,
        0.043699998408555984
      ],
      "type": "VEC2"
    },
    {
      "bufferView": 0,
      "byteOffset": 8796624,
      "componentType": 5125,
      "count": 376008,
      "type": "SCALAR"
    },
    {
      "bufferView": 2,
      "byteOffset": 11009376,
      "componentType": 5126,
      "count": 65532,
      "max": [
        6.59722900390625,
        -12.008091926574707,
        6.2014923095703125
      ],
      "min": [
        -4.136908531188965,
        -19.20464515686035,
        -17.461759567260742
      ],
      "type": "VEC3"
    },
    {
      "bufferView": 2,
      "byteOffset": 11795760,
      "componentType": 5126,
      "count": 65532,
      "max": [
        0.9999508261680603,
        0.9999246597290039,
        0.9998638033866882
      ],
      "min": [
        -0.9997413754463196,
        -0.999957799911499,
        -0.9999772310256958
      ],
      "type": "VEC3"
    },
    {
      "bufferView": 3,
      "byteOffset": 7339584,
      "componentType": 5126,
      "count": 65532,
      "max": [
        0.9991798996925354,
        0.9995235800743103,
        0.9998947381973267,
        1.0
      ],
      "min": [
        -0.9975269436836243,
        -0.9999479651451111,
        -0.9999979138374329,
        1.0
      ],
      "type": "VEC4"
    },
    {
      "bufferView": 1,
      "byteOffset": 3669792,
      "componentType": 5126,
      "count": 65532,
      "max": [
        0.7780600190162659,
        0.9307500123977661
      ],
      "min": [
        0.1066100001335144,
        0.045260000973939896
      ],
      "type": "VEC2"
    },
    {
      "bufferView": 0,
      "byteOffset": 10300656,
      "componentType": 5125,
      "count": 371961,
      "type": "SCALAR"
    },
    {
      "bufferView": 2,
      "byteOffset": 12582144,
      "componentType": 5126,
      "count": 65532,
      "max": [
        6.087834358215332,
        -7.16968297958374,
        2.045935869216919
      ],
      "min": [
        -3.8745713233947754,
        -19.510326385498047,
        -16.680702209472656
      ],
      "type": "VEC3"
    },
    {
      "bufferView": 2,
      "byteOffset": 13368528,
      "componentType": 5126,
      "count": 65532,
      "max": [
        0.9996812343597412,
        0.9994531869888306,
        0.9999914169311523
      ],
      "min": [
        -0.9998369812965393,
        -0.999994695186615,
        -0.9997080564498901
      ],
      "type": "VEC3"
    },
    {
      "bufferView": 3,
      "byteOffset": 8388096,
      "componentType": 5126,
      "count": 65532,
      "max": [
        0.9999169707298279,
        0.9995235800743103,
        0.9999995231628418,
        1.0
      ],
      "min": [
        -0.9998929500579834,
        -0.9987092614173889,
        -0.9999945163726807,
        1.0
      ],
      "type": "VEC4"
    },
    {
      "bufferView": 1,
      "byteOffset": 4194048,
      "componentType": 5126,
      "count": 65532,
      "max": [
        0.9682599902153015,
        0.9517999887466431
      ],
      "min": [
        0.0700099989771843,
        0.766040027141571
      ],
      "type": "VEC2"
    },
    {
      "bufferView": 0,
      "byteOffset": 11788500,
      "componentType": 5125,
      "count": 375579,
      "type": "SCALAR"
    },
    {
      "bufferView": 2,
      "byteOffset": 14154912,
      "componentType": 5126,
      "count": 65532,
      "max": [
        4.938200950622559,
        -6.812458038330078,
        9.685205459594727
      ],
      "min": [
        -6.101451396942139,
        -19.693309783935547,
        -14.847311973571777
      ],
      "type": "VEC3"
    },
    {
      "bufferView": 2,
      "byteOffset": 14941296,
      "componentType": 5126,
      "count": 65532,
      "max": [
        0.9999919533729553,
        0.9997920393943787,
        0.9999536275863647
      ],
      "min": [
        -0.9999902844429016,
        -0.9999852180480957,
        -0.9999927878379822
      ],
      "type": "VEC3"
    },
    {
      "bufferView": 3,
      "byteOffset": 9436608,
      "componentType": 5126,
      "count": 65532,
      "max": [
        0.9999839663505554,
        0.999587893486023,
        0.9999895691871643,
        1.0
      ],
      "min": [
        -0.9999507665634155,
        -0.9999116659164429,
        -0.9999666213989258,
        1.0
      ],
      "type": "VEC4"
    },
    {
      "bufferView": 1,
      "byteOffset": 4718304,
      "componentType": 5126,
      "count": 65532,
      "max": [
        0.9349300265312195,
        0.9509099721908569
      ],
      "min": [
        0.07214000076055527,
        0.13318000733852386
      ],
      "type": "VEC2"
    },
    {
      "bufferView": 0,
      "byteOffset": 13290816,
      "componentType": 5125,
      "count": 366258,
      "type": "SCALAR"
    },
    {
      "bufferView": 2,
      "byteOffset": 15727680,
      "componentType": 5126,
      "count": 65532,
      "max": [
        5.924831867218018,
        -7.535113334655762,
        -0.002322919899597764
      ],
      "min": [
        -4.757773399353027,
        -19.062686920166016,
        -15.784303665161133
      ],
      "type": "VEC3"
    },
    {
      "bufferView": 2,
      "byteOffset": 16514064,
      "componentType": 5126,
      "count": 65532,
      "max": [
        0.9999893307685852,
        0.9966189861297607,
        0.9999986290931702
      ],
      "min": [
        -1.0,
        -0.999284029006958,
        -0.9949875473976135
      ],
      "type": "VEC3"
    },
    {
      "bufferView": 3,
      "byteOffset": 10485120,
      "componentType": 5126,
      "count": 65532,
      "max": [
        0.9997907876968384,
        0.9974679350852966,
        0.997606098651886,
        1.0
      ],
      "min": [
        -0.999990701675415,
        -0.99967360496521,
        -0.9999059438705444,
        1.0
      ],
      "type": "VEC4"
    },
    {
      "bufferView": 1,
      "byteOffset": 5242560,
      "componentType": 5126,
      "count": 65532,
      "max": [
        0.5231999754905701,
        0.8183199763298035
      ],
      "min": [
        0.07539000362157822,
        0.5183899998664856
      ],
      "type": "VEC2"
    },
    {
      "bufferView": 0,
      "byteOffset": 14755848,
      "componentType": 5125,
      "count": 373305,
      "type": "SCALAR"
    },
    {
      "bufferView": 2,
      "byteOffset": 17300448,
      "componentType": 5126,
      "count": 65532,
      "max": [
        5.956469535827637,
        -6.126511096954346,
        -0.09145928919315338
      ],
      "min": [
        -4.799088001251221,
        -19.58798599243164,
        -15.784303665161133
      ],
      "type": "VEC3"
    },
    {
      "bufferView": 2,
      "byteOffset": 18086832,
      "componentType": 5126,
      "count": 65532,
      "max": [
        0.9999995827674866,
        0.999014675617218,
        0.9995117783546448
      ],
      "min": [
        -0.9999710917472839,
        -0.9999905228614807,
        -0.9990812540054321
      ],
      "type": "VEC3"
    },
    {
      "bufferView": 3,
      "byteOffset": 11533632,
      "componentType": 5126,
      "count": 65532,
      "max": [
        0.9997453093528748,
        0.9995732307434082,
        0.9998329281806946,
        1.0
      ],
      "min": [
        -0.9993088245391846,
        -0.9999827146530151,
        -0.9985684156417847,
        1.0
      ],
      "type": "VEC4"
    },
    {
      "bufferView": 1,
      "byteOffset": 5766816,
      "componentType": 5126,
      "count": 65532,
      "max": [
        0.9556800127029419,
        0.9777100086212158
      ],
      "min": [
        0.09052000194787979,
        0.011909999884665012
      ],
      "type": "VEC2"
    },
    {
      "bufferView": 0,
      "byteOffset": 16249068,
      "componentType": 5125,
      "count": 360483,
      "type": "SCALAR"
    },
    {
      "bufferView": 2,
      "byteOffset": 18873216,
      "componentType": 5126,
      "count": 65532,
      "max": [
        2.8091118335723877,
        -14.289824485778809,
        -0.5305953025817871
      ],
      "min": [
        -5.773003101348877,
        -20.021852493286133,
        -6.729762077331543
      ],
      "type": "VEC3"
    },
    {
      "bufferView": 2,
      "byteOffset": 19659600,
      "componentType": 5126,
      "count": 65532,
      "max": [
        0.9999910593032837,
        0.9773989319801331,
        0.9988740086555481
      ],
      "min": [
        -0.9999299049377441,
        -0.9999895691871643,
        -0.999958336353302
      ],
      "type": "VEC3"
    },
    {
      "bufferView": 3,
      "byteOffset": 12582144,
      "componentType": 5126,
      "count": 65532,
      "max": [
        0.9995685815811157,
        0.9999513626098633,
        0.9999879002571106,
        1.0
      ],
      "min": [
        -0.9489361643791199,
        -0.9999900460243225,
        -0.996953547000885,
        1.0
      ],
      "type": "VEC4"
    },
    {
      "bufferView": 1,
      "byteOffset": 6291072,
      "componentType": 5126,
      "count": 65532,
      "max": [
        0.9568399786949158,
        0.9197199940681458
      ],
      "min": [
        0.5016099810600281,
        0.6572800278663635
      ],
      "type": "VEC2"
    },
    {
      "bufferView": 0,
      "byteOffset": 17691000,
      "componentType": 5125,
      "count": 378279,
      "type": "SCALAR"
    },
    {
      "bufferView": 2,
      "byteOffset": 20445984,
      "componentType": 5126,
      "count": 65532,
      "max": [
        3.487966299057007,
        -15.547951698303223,
        2.3107306957244873
      ],
      "min": [
        -5.943312644958496,
        -19.662124633789063,
        -6.396434307098389
      ],
      "type": "VEC3"
    },
    {
      "bufferView": 2,
      "byteOffset": 21232368,
      "componentType": 5126,
      "count": 65532,
      "max": [
        0.9999277591705322,
        0.9988689422607422,
        0.9996784329414368
      ],
      "min": [
        -0.9999552369117737,
        -0.9999613165855408,
        -0.999727725982666
      ],
      "type": "VEC3"
    },
    {
      "bufferView": 3,
      "byteOffset": 13630656,
      "componentType": 5126,
      "count": 65532,
      "max": [
        0.9999679327011108,
        0.9998317360877991,
        0.9999188780784607,
        1.0
      ],
      "min": [
        -0.9597792625427246,
        -0.9996289610862732,
        -0.9998738169670105,
        1.0
      ],
      "type": "VEC4"
    },
    {
      "bufferView": 1,
      "byteOffset": 6815328,
      "componentType": 5126,
      "count": 65532,
      "max": [
        0.9142299890518188,
        0.913640022277832
      ],
      "min": [
        0.0706700012087822,
        0.6924800276756287
      ],
      "type": "VEC2"
    },
    {
      "bufferView": 0,
      "byteOffset": 19204116,
      "componentType": 5125,
      "count": 370239,
      "type": "SCALAR"
    },
    {
      "bufferView": 2,
      "byteOffset": 22018752,
      "componentType": 5126,
      "count": 65532,
      "max": [
        3.273637056350708,
        -11.575178146362305,
        1.3572475910186768
      ],
      "min": [
        -5.278719425201416,
        -19.71584701538086,
        -6.428524971008301
      ],
      "type": "VEC3"
    },
    {
      "bufferView": 2,
      "byteOffset": 22805136,
      "componentType": 5126,
      "count": 65532,
      "max": [
        0.999983549118042,
        0.9999809861183167,
        0.9999565482139587
      ],
      "min": [
        -0.9999675750732422,
        -0.9999956488609314,
        -0.9999991059303284
      ],
      "type": "VEC3"
    },
    {
      "bufferView": 3,
      "byteOffset": 14679168,
      "componentType": 5126,
      "count": 65532,
      "max": [
        0.9999942779541016,
        0.9997856616973877,
        0.9999902248382568,
        1.0
      ],
      "min": [
        -0.9989008903503418,
        -0.9999979138374329,
        -0.9999672770500183,
        1.0
      ],
      "type": "VEC4"
    },
    {
      "bufferView": 1,
      "byteOffset": 7339584,
      "componentType": 5126,
      "count": 65532,
      "max": [
        0.9150199890136719,
        0.9386900067329407
      ],
      "min": [
        0.0,
        0.4034300148487091
      ],
      "type": "VEC2"
    },
    {
      "bufferView": 0,
      "byteOffset": 20685072,
      "componentType": 5125,
      "count": 373557,
      "type": "SCALAR"
    },
    {
      "bufferView": 2,
      "byteOffset": 23591520,
      "componentType": 5126,
      "count": 65532,
      "max": [
        2.439114809036255,
        -14.656250953674316,
        4.668282985687256
      ],
      "min": [
        -5.671206951141357,
        -19.599395751953125,
        -2.4768571853637695
      ],
      "type": "VEC3"
    },
    {
      "bufferView": 2,
      "byteOffset": 24377904,
      "componentType": 5126,
      "count": 65532,
      "max": [
        0.999954104423523,
        0.9999974966049194,
        0.9999721050262451
      ],
      "min": [
        -0.9998677968978882,
        -0.9999948143959045,
        -0.9999687671661377
      ],
      "type": "VEC3"
    },
    {
      "bufferView": 3,
      "byteOffset": 15727680,
      "componentType": 5126,
      "count": 65532,
      "max": [
        0.9999464750289917,
        0.9999833703041077,
        0.9999806880950928,
        1.0
      ],
      "min": [
        -0.9999949932098389,
        -0.9998628497123718,
        -0.9999966025352478,
        1.0
      ],
      "type": "VEC4"
    },
    {
      "bufferView": 1,
      "byteOffset": 7863840,
      "componentType": 5126,
      "count": 65532,
      "max": [
        0.868910014629364,
        0.8869600296020508
      ],
      "min": [
        0.01152000017464161,
        0.4009400010108948
      ],
      "type": "VEC2"
    },
    {
      "bufferView": 0,
      "byteOffset": 22179300,
      "componentType": 5125,
      "count": 371511,
      "type": "SCALAR"
    },
    {
      "bufferView": 2,
      "byteOffset": 25164288,
      "componentType": 5126,
      "count": 65532,
      "max": [
        3.3878324031829834,
        -13.221246719360352,
        7.018716812133789
      ],
      "min": [
        -6.114774227142334,
        -20.021852493286133,
        -11.70651912689209
      ],
      "type": "VEC3"
    },
    {
      "bufferView": 2,
      "byteOffset": 25950672,
      "componentType": 5126,
      "count": 65532,
      "max": [
        0.9999881386756897,
        0.9949770569801331,
        0.9999809861183167
      ],
      "min": [
        -0.9999898076057434,
        -0.9999891519546509,
        -0.9999773502349854
      ],
      "type": "VEC3"
    },
    {
      "bufferView": 3,
      "byteOffset": 16776192,
      "componentType": 5126,
      "count": 65532,
      "max": [
        0.9995980858802795,
        0.9999813437461853,
        0.9999874234199524,
        1.0
      ],
      "min": [
        -0.9999985694885254,
        -0.9996570348739624,
        -0.9999945759773254,
        1.0
      ],
      "type": "VEC4"
    },
    {
      "bufferView": 1,
      "byteOffset": 8388096,
      "componentType": 5126,
      "count": 65532,
      "max": [
        0.9131500124931335,
        0.9393399953842163
      ],
      "min": [
        0.006070000119507313,
        0.0012499999720603228
      ],
      "type": "VEC2"
    },
    {
      "bufferView": 0,
      "byteOffset": 23665344,
      "componentType": 5125,
      "count": 365379,
      "type": "SCALAR"
    },
    {
      "bufferView": 2,
      "byteOffset": 26737056,
      "componentType": 5126,
      "count": 65532,
      "max": [
        8.131606101989746,
        -1.804240107536316,
        18.513225555419922
      ],
      "min": [
        -6.1387038230896,
        -19.524290084838867,
        -8.936903953552246
      ],
      "type": "VEC3"
    },
    {
      "bufferView": 2,
      "byteOffset": 27523440,
      "componentType": 5126,
      "count": 65532,
      "max": [
        0.9999653697013855,
        0.9999969005584717,
        0.9996904730796814
      ],
      "min": [
        -0.9999942779541016,
        -0.9999639391899109,
        -0.9997361302375793
      ],
      "type": "VEC3"
    },
    {
      "bufferView": 3,
      "byteOffset": 17824704,
      "componentType": 5126,
      "count": 65532,
      "max": [
        0.9998435378074646,
        0.9999815225601196,
        0.9999984502792358,
        1.0
      ],
      "min": [
        -0.9999608993530273,
        -0.9997801780700684,
        -0.9996942281723022,
        1.0
      ],
      "type": "VEC4"
    },
    {
      "bufferView": 1,
      "byteOffset": 8912352,
      "componentType": 5126,
      "count": 65532,
      "max": [
        0.8496900200843811,
        0.9002599716186523
      ],
      "min": [
        0.008510000072419643,
        0.006289999932050705
      ],
      "type": "VEC2"
    },
    {
      "bufferView": 0,
      "byteOffset": 25126860,
      "componentType": 5125,
      "count": 363252,
      "type": "SCALAR"
    },
    {
      "bufferView": 2,
      "byteOffset": 28309824,
      "componentType": 5126,
      "count": 65532,
      "max": [
        7.990941047668457,
        -1.34757399559021,
        20.12742042541504
      ],
      "min": [
        -6.128796100616455,
        -14.065361976623535,
        -0.9145935773849487
      ],
      "type": "VEC3"
    },
    {
      "bufferView": 2,
      "byteOffset": 29096208,
      "componentType": 5126,
      "count": 65532,
      "max": [
        0.9999532103538513,
        0.9999975562095642,
        0.9999135136604309
      ],
      "min": [
        -0.9999992847442627,
        -0.9999788403511047,
        -0.9999133944511414
      ],
      "type": "VEC3"
    },
    {
      "bufferView": 3,
      "byteOffset": 18873216,
      "componentType": 5126,
      "count": 65532,
      "max": [
        0.9678630232810974,
        0.9998844861984253,
        0.9999969005584717,
        1.0
      ],
      "min": [
        -0.9999993443489075,
        -0.9993776679039001,
        -0.9999482035636902,
        -1.0
      ],
      "type": "VEC4"
    },
    {
      "bufferView": 1,
      "byteOffset": 9436608,
      "componentType": 5126,
      "count": 65532,
      "max": [
        0.8617799878120422,
        0.5038099884986877
      ],
      "min": [
        0.03413999825716019,
        0.019349999725818634
      ],
      "type": "VEC2"
    },
    {
      "bufferView": 0,
      "byteOffset": 26579868,
      "componentType": 5125,
      "count": 360432,
      "type": "SCALAR"
    },
    {
      "bufferView": 2,
      "byteOffset": 29882592,
      "componentType": 5126,
      "count": 65532,
      "max": [
        8.121006965637207,
        -1.3604869842529297,
        21.93162727355957
      ],
      "min": [
        -6.202147960662842,
        -19.123106002807617,
        -18.142534255981445
      ],
      "type": "VEC3"
    },
    {
      "bufferView": 2,
      "byteOffset": 30668976,
      "componentType": 5126,
      "count": 65532,
      "max": [
        0.9999954700469971,
        0.9999971985816956,
        0.9942424297332764
      ],
      "min": [
        -0.9999990463256836,
        -0.9998395442962646,
        -0.9998915195465088
      ],
      "type": "VEC3"
    },
    {
      "bufferView": 3,
      "byteOffset": 19921728,
      "componentType": 5126,
      "count": 65532,
      "max": [
        0.9186683893203735,
        0.9999979734420776,
        0.9999837279319763,
        1.0
      ],
      "min": [
        -0.9999386072158813,
        -0.88314288854599,
        -0.9999969601631165,
        1.0
      ],
      "type": "VEC4"
    },
    {
      "bufferView": 1,
      "byteOffset": 9960864,
      "componentType": 5126,
      "count": 65532,
      "max": [
        0.8602499961853027,
        0.902999997138977
      ],
      "min": [
        0.015150000341236591,
        0.06207999959588051
      ],
      "type": "VEC2"
    },
    {
      "bufferView": 0,
      "byteOffset": 28021596,
      "componentType": 5125,
      "count": 360417,
      "type": "SCALAR"
    },
    {
      "bufferView": 2,
      "byteOffset": 31455360,
      "componentType": 5126,
      "count": 65532,
      "max": [
        6.513250827789307,
        -1.4115471839904785,
        24.1166934967041
      ],
      "min": [
        -6.717766284942627,
        -12.162065505981445,
        -18.1560001373291
      ],
      "type": "VEC3"
    },
    {
      "bufferView": 2,
      "byteOffset": 32241744,
      "componentType": 5126,
      "count": 65532,
      "max": [
        0.9999750256538391,
        0.9999998807907104,
        0.9999597072601318
      ],
      "min": [
        -0.9999776482582092,
        -0.9999778270721436,
        -0.9830963015556335
      ],
      "type": "VEC3"
    },
    {
      "bufferView": 3,
      "byteOffset": 20970240,
      "componentType": 5126,
      "count": 65532,
      "max": [
        0.9564230442047119,
        0.9673812389373779,
        0.9999991059303284,
        1.0
      ],
      "min": [
        -0.9999707937240601,
        -0.85433030128479,
        -0.9999871850013733,
        1.0
      ],
      "type": "VEC4"
    },
    {
      "bufferView": 1,
      "byteOffset": 10485120,
      "componentType": 5126,
      "count": 65532,
      "max": [
        0.8460500240325928,
        0.4684799909591675
      ],
      "min": [
        0.0709099993109703,
        0.19899000227451324
      ],
      "type": "VEC2"
    },
    {
      "bufferView": 0,
      "byteOffset": 29463264,
      "componentType": 5125,
      "count": 368718,
      "type": "SCALAR"
    },
    {
      "bufferView": 2,
      "byteOffset": 33028128,
      "componentType": 5126,
      "count": 65532,
      "max": [
        7.966971397399902,
        -1.1884154081344604,
        10.813910484313965
      ],
      "min": [
        -4.362766742706299,
        -4.607265472412109,
        -15.705607414245605
      ],
      "type": "VEC3"
    },
    {
      "bufferView": 2,
      "byteOffset": 33814512,
      "componentType": 5126,
      "count": 65532,
      "max": [
        0.999945342540741,
        0.9999997019767761,
        0.951211154460907
      ],
      "min": [
        -0.9999562501907349,
        -0.8181280493736267,
        -0.9318443536758423
      ],
      "type": "VEC3"
    },
    {
      "bufferView": 3,
      "byteOffset": 22018752,
      "componentType": 5126,
      "count": 65532,
      "max": [
        0.9068219065666199,
        0.9999392032623291,
        0.9999707937240601,
        1.0
      ],
      "min": [
        -0.8526156544685364,
        -0.9419507384300232,
        -0.3400777578353882,
        1.0
      ],
      "type": "VEC4"
    },
    {
      "bufferView": 1,
      "byteOffset": 11009376,
      "componentType": 5126,
      "count": 65532,
      "max": [
        0.4752799868583679,
        0.3636699914932251
      ],
      "min": [
        0.17256000638008118,
        0.08601000159978867
      ],
      "type": "VEC2"
    },
    {
      "bufferView": 0,
      "byteOffset": 30938136,
      "componentType": 5125,
      "count": 383556,
      "type": "SCALAR"
    },
    {
      "bufferView": 2,
      "byteOffset": 34600896,
      "componentType": 5126,
      "count": 65532,
      "max": [
        3.9560155868530273,
        -1.3207578659057617,
        24.16979217529297
      ],
      "min": [
        -6.810317039489746,
        -10.245220184326172,
        2.7430849075317383
      ],
      "type": "VEC3"
    },
    {
      "bufferView": 2,
      "byteOffset": 35387280,
      "componentType": 5126,
      "count": 65532,
      "max": [
        0.8007600903511047,
        0.9999990463256836,
        0.9999989867210388
      ],
      "min": [
        -0.9999586939811707,
        -0.9999260902404785,
        -0.9309865236282349
      ],
      "type": "VEC3"
    },
    {
      "bufferView": 3,
      "byteOffset": 23067264,
      "componentType": 5126,
      "count": 65532,
      "max": [
        0.9995266199111938,
        0.9996054172515869,
        0.999963641166687,
        1.0
      ],
      "min": [
        -0.9999954104423523,
        -0.9723659157752991,
        -0.9999997615814209,
        1.0
      ],
      "type": "VEC4"
    },
    {
      "bufferView": 1,
      "byteOffset": 11533632,
      "componentType": 5126,
      "count": 65532,
      "max": [
        0.8294600248336792,
        0.3756200075149536
      ],
      "min": [
        0.20292000472545624,
        0.013439999893307686
      ],
      "type": "VEC2"
    },
    {
      "bufferView": 0,
      "byteOffset": 32472360,
      "componentType": 5125,
      "count": 373965,
      "type": "SCALAR"
    },
    {
      "bufferView": 2,
      "byteOffset": 36173664,
      "componentType": 5126,
      "count": 65532,
      "max": [
        5.283183574676514,
        -1.186266541481018,
        24.001976013183594
      ],
      "min": [
        -6.809656143188477,
        -8.293190956115723,
        -17.20643424987793
      ],
      "type": "VEC3"
    },
    {
      "bufferView": 2,
      "byteOffset": 36960048,
      "componentType": 5126,
      "count": 65532,
      "max": [
        0.989814817905426,
        0.9999999403953552,
        0.9998801350593567
      ],
      "min": [
        -0.999995231628418,
        -0.9834758639335632,
        -0.9267302751541138
      ],
      "type": "VEC3"
    },
    {
      "bufferView": 3,
      "byteOffset": 24115776,
      "componentType": 5126,
      "count": 65532,
      "max": [
        0.999992847442627,
        0.9995468258857727,
        0.9999987483024597,
        1.0
      ],
      "min": [
        -0.999985933303833,
        -0.9493319988250732,
        -0.9993905425071716,
        1.0
      ],
      "type": "VEC4"
    },
    {
      "bufferView": 1,
      "byteOffset": 12057888,
      "componentType": 5126,
      "count": 65532,
      "max": [
        0.7910900115966797,
        0.36833998560905457
      ],
      "min": [
        0.14212000370025635,
        0.0017099999822676182
      ],
      "type": "VEC2"
    },
    {
      "bufferView": 0,
      "byteOffset": 33968220,
      "componentType": 5125,
      "count": 372975,
      "type": "SCALAR"
    },
    {
      "bufferView": 2,
      "byteOffset": 37746432,
      "componentType": 5126,
      "count": 65532,
      "max": [
        3.759145736694336,
        -1.3113657236099243,
        23.515411376953125
      ],
      "min": [
        -6.671619892120361,
        -6.182147026062012,
        6.699942111968994
      ],
      "type": "VEC3"
    },
    {
      "bufferView": 2,
      "byteOffset": 38532816,
      "componentType": 5126,
      "count": 65532,
      "max": [
        0.9462623596191406,
        0.9999995827674866,
        0.9985915422439575
      ],
      "min": [
        -0.9999746680259705,
        -0.9551826119422913,
        -0.8490098714828491
      ],
      "type": "VEC3"
    },
    {
      "bufferView": 3,
      "byteOffset": 25164288,
      "componentType": 5126,
      "count": 65532,
      "max": [
        0.6592224836349487,
        0.8506350517272949,
        0.9999999403953552,
        1.0
      ],
      "min": [
        -0.999906063079834,
        -0.9956941604614258,
        -0.9999897480010986,
        1.0
      ],
      "type": "VEC4"
    },
    {
      "bufferView": 1,
      "byteOffset": 12582144,
      "componentType": 5126,
      "count": 65532,
      "max": [
        0.7259799838066101,
        0.2878600060939789
      ],
      "min": [
        0.28387999534606934,
        0.0009399999980814755
      ],
      "type": "VEC2"
    },
    {
      "bufferView": 0,
      "byteOffset": 35460120,
      "componentType": 5125,
      "count": 384150,
      "type": "SCALAR"
    },
    {
      "bufferView": 2,
      "byteOffset": 39319200,
      "componentType": 5126,
      "count": 65532,
      "max": [
        8.264716148376465,
        -1.1473294496536255,
        23.5035457611084
      ],
      "min": [
        -6.722112655639648,
        -6.530869960784912,
        -16.151124954223633
      ],
      "type": "VEC3"
    },
    {
      "bufferView": 2,
      "byteOffset": 40105584,
      "componentType": 5126,
      "count": 65532,
      "max": [
        0.9999527931213379,
        0.9999995827674866,
        0.999753475189209
      ],
      "min": [
        -0.9999904632568359,
        -0.937389075756073,
        -0.9415754079818726
      ],
      "type": "VEC3"
    },
    {
      "bufferView": 3,
      "byteOffset": 26212800,
      "componentType": 5126,
      "count": 65532,
      "max": [
        0.9297927021980286,
        0.9912402629852295,
        0.9999992847442627,
        1.0
      ],
      "min": [
        -0.9999992847442627,
        -0.9857839941978455,
        -0.9999987483024597,
        1.0
      ],
      "type": "VEC4"
    },
    {
      "bufferView": 1,
      "byteOffset": 13106400,
      "componentType": 5126,
      "count": 65532,
      "max": [
        0.7725899815559387,
        0.2912200093269348
      ],
      "min": [
        0.11715999990701675,
        0.006670000031590462
      ],
      "type": "VEC2"
    },
    {
      "bufferView": 0,
      "byteOffset": 36996720,
      "componentType": 5125,
      "count": 356637,
      "type": "SCALAR"
    },
    {
      "bufferView": 2,
      "byteOffset": 40891968,
      "componentType": 5126,
      "count": 65532,
      "max": [
        4.881180286407471,
        -1.191461205482483,
        3.472085952758789
      ],
      "min": [
        -5.822562217712402,
        -11.070005416870117,
        -18.783323287963867
      ],
      "type": "VEC3"
    },
    {
      "bufferView": 2,
      "byteOffset": 41678352,
      "componentType": 5126,
      "count": 65532,
      "max": [
        0.9774015545845032,
        0.9999979138374329,
        0.978990912437439
      ],
      "min": [
        -0.9999871253967285,
        -0.9992867708206177,
        -0.9999944567680359
      ],
      "type": "VEC3"
    },
    {
      "bufferView": 3,
      "byteOffset": 27261312,
      "componentType": 5126,
      "count": 65532,
      "max": [
        0.999923050403595,
        0.9999845623970032,
        0.9786014556884766,
        1.0
      ],
      "min": [
        -0.9239665269851685,
        -0.9372644424438477,
        -0.8739245533943176,
        1.0
      ],
      "type": "VEC4"
    },
    {
      "bufferView": 1,
      "byteOffset": 13630656,
      "componentType": 5126,
      "count": 65532,
      "max": [
        0.2067199945449829,
        0.37439000606536865
      ],
      "min": [
        0.03172999992966652,
        0.06659000366926193
      ],
      "type": "VEC2"
    },
    {
      "bufferView": 0,
      "byteOffset": 38423268,
      "componentType": 5125,
      "count": 377589,
      "type": "SCALAR"
    },
    {
      "bufferView": 2,
      "byteOffset": 42464736,
      "componentType": 5126,
      "count": 65532,
      "max": [
        8.236063957214355,
        -1.194023609161377,
        24.13954734802246
      ],
      "min": [
        -6.803469657897949,
        -8.188346862792969,
        -18.790206909179688
      ],
      "type": "VEC3"
    },
    {
      "bufferView": 2,
      "byteOffset": 43251120,
      "componentType": 5126,
      "count": 65532,
      "max": [
        0.9999630451202393,
        0.9999951720237732,
        0.988275408744812
      ],
      "min": [
        -0.9999979734420776,
        -0.9889963269233704,
        -0.9999920725822449
      ],
      "type": "VEC3"
    },
    {
      "bufferView": 3,
      "byteOffset": 28309824,
      "componentType": 5126,
      "count": 65532,
      "max": [
        0.9666725397109985,
        0.9999558329582214,
        0.9993878602981567,
        1.0
      ],
      "min": [
        -0.9878510236740112,
        -0.9780541658401489,
        -0.9999812841415405,
        1.0
      ],
      "type": "VEC4"
    },
    {
      "bufferView": 1,
      "byteOffset": 14154912,
      "componentType": 5126,
      "count": 65532,
      "max": [
        0.8198400139808655,
        0.37681999802589417
      ],
      "min": [
        0.06611999869346619,
        0.0009399999980814755
      ],
      "type": "VEC2"
    },
    {
      "bufferView": 0,
      "byteOffset": 39933624,
      "componentType": 5125,
      "count": 365823,
      "type": "SCALAR"
    },
    {
      "bufferView": 2,
      "byteOffset": 44037504,
      "componentType": 5126,
      "count": 65532,
      "max": [
        8.183249473571777,
        -1.2067099809646606,
        24.091609954833984
      ],
      "min": [
        -6.8288068771362305,
        -8.90756607055664,
        -18.523860931396484
      ],
      "type": "VEC3"
    },
    {
      "bufferView": 2,
      "byteOffset": 44823888,
      "componentType": 5126,
      "count": 65532,
      "max": [
        0.9999995827674866,
        0.9999728798866272,
        0.9995014667510986
      ],
      "min": [
        -1.0,
        -0.9964517951011658,
        -0.9915707111358643
      ],
      "type": "VEC3"
    },
    {
      "bufferView": 3,
      "byteOffset": 29358336,
      "componentType": 5126,
      "count": 65532,
      "max": [
        0.9867133498191833,
        0.9999976754188538,
        0.9999991059303284,
        1.0
      ],
      "min": [
        -0.9968196153640747,
        -0.8477866053581238,
        -0.9999530911445618,
        1.0
      ],
      "type": "VEC4"
    },
    {
      "bufferView": 1,
      "byteOffset": 14679168,
      "componentType": 5126,
      "count": 65532,
      "max": [
        0.8704599738121033,
        0.40033000707626343
      ],
      "min": [
        0.08958999812602997,
        0.028060000389814377
      ],
      "type": "VEC2"
    },
    {
      "bufferView": 0,
      "byteOffset": 41396916,
      "componentType": 5125,
      "count": 364365,
      "type": "SCALAR"
    },
    {
      "bufferView": 2,
      "byteOffset": 45610272,
      "componentType": 5126,
      "count": 65532,
      "max": [
        7.75855016708374,
        -2.6485235691070557,
        22.292646408081055
      ],
      "min": [
        -6.642002582550049,
        -13.411223411560059,
        -18.539216995239258
      ],
      "type": "VEC3"
    },
    {
      "bufferView": 2,
      "byteOffset": 46396656,
      "componentType": 5126,
      "count": 65532,
      "max": [
        0.9999991059303284,
        0.9598525762557983,
        0.9758039116859436
      ],
      "min": [
        -0.9999995827674866,
        -0.9991430640220642,
        -0.9999949932098389
      ],
      "type": "VEC3"
    },
    {
      "bufferView": 3,
      "byteOffset": 30406848,
      "componentType": 5126,
      "count": 65532,
      "max": [
        0.9453736543655396,
        0.9999898672103882,
        0.9999998807907104,
        1.0
      ],
      "min": [
        -0.9970123171806335,
        -0.579016387462616,
        -0.99966961145401,
        1.0
      ],
      "type": "VEC4"
    },
    {
      "bufferView": 1,
      "byteOffset": 15203424,
      "componentType": 5126,
      "count": 65532,
      "max": [
        0.8545799851417542,
        0.4571399986743927
      ],
      "min": [
        0.021199999377131462,
        0.0674000009894371
      ],
      "type": "VEC2"
    },
    {
      "bufferView": 0,
      "byteOffset": 42854376,
      "componentType": 5125,
      "count": 361233,
      "type": "SCALAR"
    },
    {
      "bufferView": 2,
      "byteOffset": 47183040,
      "componentType": 5126,
      "count": 65532,
      "max": [
        6.689974308013916,
        -5.720241546630859,
        19.038715362548828
      ],
      "min": [
        -6.241482734680176,
        -16.894742965698242,
        -18.314599990844727
      ],
      "type": "VEC3"
    },
    {
      "bufferView": 2,
      "byteOffset": 47969424,
      "componentType": 5126,
      "count": 65532,
      "max": [
        0.9999901652336121,
        0.9632697105407715,
        0.9994556307792664
      ],
      "min": [
        -0.9999788403511047,
        -0.9998682141304016,
        -0.9997334480285645
      ],
      "type": "VEC3"
    },
    {
      "bufferView": 3,
      "byteOffset": 31455360,
      "componentType": 5126,
      "count": 65532,
      "max": [
        0.9203289747238159,
        0.9999961256980896,
        0.9999970197677612,
        1.0
      ],
      "min": [
        -0.9977357387542725,
        -0.9999801516532898,
        -0.99993497133255,
        1.0
      ],
      "type": "VEC4"
    },
    {
      "bufferView": 1,
      "byteOffset": 15727680,
      "componentType": 5126,
      "count": 65532,
      "max": [
        0.9189299941062927,
        0.9261000156402588
      ],
      "min": [
        0.0057299998588860035,
        0.06379000097513199
      ],
      "type": "VEC2"
    },
    {
      "bufferView": 0,
      "byteOffset": 44299308,
      "componentType": 5125,
      "count": 363198,
      "type": "SCALAR"
    },
    {
      "bufferView": 2,
      "byteOffset": 48755808,
      "componentType": 5126,
      "count": 65534,
      "max": [
        6.058724880218506,
        -2.3382303714752197,
        21.056625366210938
      ],
      "min": [
        -6.120569705963135,
        -19.680831909179688,
        -16.82610511779785
      ],
      "type": "VEC3"
    },
    {
      "bufferView": 2,
      "byteOffset": 49542216,
      "componentType": 5126,
      "count": 65534,
      "max": [
        0.9999784231185913,
        0.9981834888458252,
        0.9998165965080261
      ],
      "min": [
        -0.9999939799308777,
        -0.9999056458473206,
        -0.9998881220817566
      ],
      "type": "VEC3"
    },
    {
      "bufferView": 3,
      "byteOffset": 32503872,
      "componentType": 5126,
      "count": 65534,
      "max": [
        0.9999208450317383,
        0.9999321103096008,
        0.999913215637207,
        1.0
      ],
      "min": [
        -0.9999597668647766,
        -0.9999140501022339,
        -0.9994679093360901,
        1.0
      ],
      "type": "VEC4"
    },
    {
      "bufferView": 1,
      "byteOffset": 16251936,
      "componentType": 5126,
      "count": 65534,
      "max": [
        0.9999899864196777,
        0.9738900065422058
      ],
      "min": [
        0.035110000520944595,
        0.0
      ],
      "type": "VEC2"
    },
    {
      "bufferView": 0,
      "byteOffset": 45752100,
      "componentType": 5125,
      "count": 338460,
      "type": "SCALAR"
    },
    {
      "bufferView": 2,
      "byteOffset": 50328624,
      "componentType": 5126,
      "count": 65532,
      "max": [
        7.340433120727539,
        -1.3364561796188354,
        18.330183029174805
      ],
      "min": [
        -6.128190517425537,
        -19.741220474243164,
        -16.252607345581055
      ],
      "type": "VEC3"
    },
    {
      "bufferView": 2,
      "byteOffset": 51115008,
      "componentType": 5126,
      "count": 65532,
      "max": [
        0.9999881386756897,
        0.9999878406524658,
        0.9999765157699585
      ],
      "min": [
        -0.9999986290931702,
        -0.9999726414680481,
        -0.9999672174453735
      ],
      "type": "VEC3"
    },
    {
      "bufferView": 3,
      "byteOffset": 33552416,
      "componentType": 5126,
      "count": 65532,
      "max": [
        0.999923586845398,
        0.999981164932251,
        0.9999871253967285,
        1.0
      ],
      "min": [
        -0.999948263168335,
        -0.9999827146530151,
        -0.9999979138374329,
        -1.0
      ],
      "type": "VEC4"
    },
    {
      "bufferView": 1,
      "byteOffset": 16776208,
      "componentType": 5126,
      "count": 65532,
      "max": [
        0.9857800006866455,
        0.9476600289344788
      ],
      "min": [
        0.007410000078380108,
        0.00015999999595806003
      ],
      "type": "VEC2"
    },
    {
      "bufferView": 0,
      "byteOffset": 47105940,
      "componentType": 5125,
      "count": 279771,
      "type": "SCALAR"
    },
    {
      "bufferView": 2,
      "byteOffset": 51901392,
      "componentType": 5126,
      "count": 8394,
      "max": [
        6.612754821777344,
        -7.9522271156311035,
        13.810748100280762
      ],
      "min": [
        -6.09004545211792,
        -18.913803100585938,
        -17.877819061279297
      ],
      "type": "VEC3"
    },
    {
      "bufferView": 2,
      "byteOffset": 52002120,
      "componentType": 5126,
      "count": 8394,
      "max": [
        0.999940037727356,
        0.9882858991622925,
        0.9995115399360657
      ],
      "min": [
        -0.9999765753746033,
        -0.9993864893913269,
        -0.999176561832428
      ],
      "type": "VEC3"
    },
    {
      "bufferView": 3,
      "byteOffset": 34600928,
      "componentType": 5126,
      "count": 8394,
      "max": [
        0.9674605131149292,
        0.999698281288147,
        0.9984816908836365,
        1.0
      ],
      "min": [
        -0.9981189966201782,
        -0.8815508484840393,
        -0.9975985884666443,
        1.0
      ],
      "type": "VEC4"
    },
    {
      "bufferView": 1,
      "byteOffset": 17300464,
      "componentType": 5126,
      "count": 8394,
      "max": [
        0.855459988117218,
        0.9329000115394592
      ],
      "min": [
        0.008329999633133411,
        0.03700999915599823
      ],
      "type": "VEC2"
    },
    {
      "bufferView": 0,
      "byteOffset": 48225024,
      "componentType": 5125,
      "count": 36288,
      "type": "SCALAR"
    }
  ],
  "asset": {
    "extras": {
      "author": "Andre Bond Sr. (https://sketchfab.com/leadblacktech)",
      "license": "CC-BY-4.0 (http://creativecommons.org/licenses/by/4.0/)",
      "source": "https://sketchfab.com/3d-models/air-force-1-low-07-whitedark-beetroot-d04d71fb58ab4059bb9b80059ac32719",
      "title": "Air Force 1 Low '07 \"White/Dark Beetroot\""
    },
    "generator": "Sketchfab-16.67.0",
    "version": "2.0"
  },
  "bufferViews": [
    {
      "buffer": 0,
      "byteLength": 48370176,
      "name": "floatBufferViews",
      "target": 34963
    },
    {
      "buffer": 0,
      "byteLength": 17367616,
      "byteOffset": 48370176,
      "byteStride": 8,
      "name": "floatBufferViews",
      "target": 34962
    },
    {
      "buffer": 0,
      "byteLength": 52102848,
      "byteOffset": 65737792,
      "byteStride": 12,
      "name": "floatBufferViews",
      "target": 34962
    },
    {
      "buffer": 0,
      "byteLength": 34735232,
      "byteOffset": 117840640,
      "byteStride": 16,
      "name": "floatBufferViews",
      "target": 34962
    }
  ],
  "buffers": [
    {
      "byteLength": 152575872,
      "uri": "scene.bin"
    }
  ],
  "extensionsUsed": [
    "KHR_materials_specular"
  ],
  "images": [
    {
      "uri": "textures/defaultMat_baseColor.png"
    },
    {
      "uri": "textures/defaultMat_metallicRoughness.png"
    },
    {
      "uri": "textures/defaultMat_normal.png"
    }
  ],
  "materials": [
    {
      "doubleSided": true,
      "extensions": {
        "KHR_materials_specular": {
          "specularColorFactor": [
            1.0,
            1.0,
            1.0
          ],
          "specularFactor": 0.0
        }
      },
      "name": "defaultMat",
      "normalTexture": {
        "index": 2
      },
      "occlusionTexture": {
        "index": 1
      },
      "pbrMetallicRoughness": {
        "baseColorTexture": {
          "index": 0
        },
        "metallicFactor": 0.0,
        "metallicRoughnessTexture": {
          "index": 1
        }
      }
    }
  ],
  "meshes": [
    {
      "name": "Object_0",
      "primitives": [
        {
          "attributes": {
            "NORMAL": 1,
            "POSITION": 0,
            "TANGENT": 2,
            "TEXCOORD_0": 3
          },
          "indices": 4,
          "material": 0,
          "mode": 4
        }
      ]
    },
    {
      "name": "Object_1",
      "primitives": [
        {
          "attributes": {
            "NORMAL": 6,
            "POSITION": 5,
            "TANGENT": 7,
            "TEXCOORD_0": 8
          },
          "indices": 9,
          "material": 0,
          "mode": 4
        }
      ]
    },
    {
      "name": "Object_2",
      "primitives": [
        {
          "attributes": {
            "NORMAL": 11,
            "POSITION": 10,
            "TANGENT": 12,
            "TEXCOORD_0": 13
          },
          "indices": 14,
          "material": 0,
          "mode": 4
        }
      ]
    },
    {
      "name": "Object_3",
      "primitives": [
        {
          "attributes": {
            "NORMAL": 16,
            "POSITION": 15,
            "TANGENT": 17,
            "TEXCOORD_0": 18
          },
          "indices": 19,
          "material": 0,
          "mode": 4
        }
      ]
    },
    {
      "name": "Object_4",
      "primitives": [
        {
          "attributes": {
            "NORMAL": 21,
            "POSITION": 20,
            "TANGENT": 22,
            "TEXCOORD_0": 23
          },
          "indices": 24,
          "material": 0,
          "mode": 4
        }
      ]
    },
    {
      "name": "Object_5",
      "primitives": [
        {
          "attributes": {
            "NORMAL": 26,
            "POSITION": 25,
            "TANGENT": 27,
            "TEXCOORD_0": 28
          },
          "indices": 29,
          "material": 0,
          "mode": 4
        }
      ]
    },
    {
      "name": "Object_6",
      "primitives": [
        {
          "attributes": {
            "NORMAL": 31,
            "POSITION": 30,
            "TANGENT": 32,
            "TEXCOORD_0": 33
          },
          "indices": 34,
          "material": 0,
          "mode": 4
        }
      ]
    },
    {
      "name": "Object_7",
      "primitives": [
        {
          "attributes": {
            "NORMAL": 36,
            "POSITION": 35,
            "TANGENT": 37,
            "TEXCOORD_0": 38
          },
          "indices": 39,
          "material": 0,
          "mode": 4
        }
      ]
    },
    {
      "name": "Object_8",
      "primitives": [
        {
          "attributes": {
            "NORMAL": 41,
            "POSITION": 40,
            "TANGENT": 42,
            "TEXCOORD_0": 43
          },
          "indices": 44,
          "material": 0,
          "mode": 4
        }
      ]
    },
    {
      "name": "Object_9",
      "primitives": [
        {
          "attributes": {
            "NORMAL": 46,
            "POSITION": 45,
            "TANGENT": 47,
            "TEXCOORD_0": 48
          },
          "indices": 49,
          "material": 0,
          "mode": 4
        }
      ]
    },
    {
      "name": "Object_10",
      "primitives": [
        {
          "attributes": {
            "NORMAL": 51,
            "POSITION": 50,
            "TANGENT": 52,
            "TEXCOORD_0": 53
          },
          "indices": 54,
          "material": 0,
          "mode": 4
        }
      ]
    },
    {
      "name": "Object_11",
      "primitives": [
        {
          "attributes": {
            "NORMAL": 56,
            "POSITION": 55,
            "TANGENT": 57,
            "TEXCOORD_0": 58
          },
          "indices": 59,
          "material": 0,
          "mode": 4
        }
      ]
    },
    {
      "name": "Object_12",
      "primitives": [
        {
          "attributes": {
            "NORMAL": 61,
            "POSITION": 60,
            "TANGENT": 62,
            "TEXCOORD_0": 63
          },
          "indices": 64,
          "material": 0,
          "mode": 4
        }
      ]
    },
    {
      "name": "Object_13",
      "primitives": [
        {
          "attributes": {
            "NORMAL": 66,
            "POSITION": 65,
            "TANGENT": 67,
            "TEXCOORD_0": 68
          },
          "indices": 69,
          "material": 0,
          "mode": 4
        }
      ]
    },
    {
      "name": "Object_14",
      "primitives": [
        {
          "attributes": {
            "NORMAL": 71,
            "POSITION": 70,
            "TANGENT": 72,
            "TEXCOORD_0": 73
          },
          "indices": 74,
          "material": 0,
          "mode": 4
        }
      ]
    },
    {
      "name": "Object_15",
      "primitives": [
        {
          "attributes": {
            "NORMAL": 76,
            "POSITION": 75,
            "TANGENT": 77,
            "TEXCOORD_0": 78
          },
          "indices": 79,
          "material": 0,
          "mode": 4
        }
      ]
    },
    {
      "name": "Object_16",
      "primitives": [
        {
          "attributes": {
            "NORMAL": 81,
            "POSITION": 80,
            "TANGENT": 82,
            "TEXCOORD_0": 83
          },
          "indices": 84,
          "material": 0,
          "mode": 4
        }
      ]
    },
    {
      "name": "Object_17",
      "primitives": [
        {
          "attributes": {
            "NORMAL": 86,
            "POSITION": 85,
            "TANGENT": 87,
            "TEXCOORD_0": 88
          },
          "indices": 89,
          "material": 0,
          "mode": 4
        }
      ]
    },
    {
      "name": "Object_18",
      "primitives": [
        {
          "attributes": {
            "NORMAL": 91,
            "POSITION": 90,
            "TANGENT": 92,
            "TEXCOORD_0": 93
          },
          "indices": 94,
          "material": 0,
          "mode": 4
        }
      ]
    },
    {
      "name": "Object_19",
      "primitives": [
        {
          "attributes": {
            "NORMAL": 96,
            "POSITION": 95,
            "TANGENT": 97,
            "TEXCOORD_0": 98
          },
          "indices": 99,
          "material": 0,
          "mode": 4
        }
      ]
    },
    {
      "name": "Object_20",
      "primitives": [
        {
          "attributes": {
            "NORMAL": 101,
            "POSITION": 100,
            "TANGENT": 102,
            "TEXCOORD_0": 103
          },
          "indices": 104,
          "material": 0,
          "mode": 4
        }
      ]
    },
    {
      "name": "Object_21",
      "primitives": [
        {
          "attributes": {
            "NORMAL": 106,
            "POSITION": 105,
            "TANGENT": 107,
            "TEXCOORD_0": 108
          },
          "indices": 109,
          "material": 0,
          "mode": 4
        }
      ]
    },
    {
      "name": "Object_22",
      "primitives": [
        {
          "attributes": {
            "NORMAL": 111,
            "POSITION": 110,
            "TANGENT": 112,
            "TEXCOORD_0": 113
          },
          "indices": 114,
          "material": 0,
          "mode": 4
        }
      ]
    },
    {
      "name": "Object_23",
      "primitives": [
        {
          "attributes": {
            "NORMAL": 116,
            "POSITION": 115,
            "TANGENT": 117,
            "TEXCOORD_0": 118
          },
          "indices": 119,
          "material": 0,
          "mode": 4
        }
      ]
    },
    {
      "name": "Object_24",
      "primitives": [
        {
          "attributes": {
            "NORMAL": 121,
            "POSITION": 120,
            "TANGENT": 122,
            "TEXCOORD_0": 123
          },
          "indices": 124,
          "material": 0,
          "mode": 4
        }
      ]
    },
    {
      "name": "Object_25",
      "primitives": [
        {
          "attributes": {
            "NORMAL": 126,
            "POSITION": 125,
            "TANGENT": 127,
            "TEXCOORD_0": 128
          },
          "indices": 129,
          "material": 0,
          "mode": 4
        }
      ]
    },
    {
      "name": "Object_26",
      "primitives": [
        {
          "attributes": {
            "NORMAL": 131,
            "POSITION": 130,
            "TANGENT": 132,
            "TEXCOORD_0": 133
          },
          "indices": 134,
          "material": 0,
          "mode": 4
        }
      ]
    },
    {
      "name": "Object_27",
      "primitives": [
        {
          "attributes": {
            "NORMAL": 136,
            "POSITION": 135,
            "TANGENT": 137,
            "TEXCOORD_0": 138
          },
          "indices": 139,
          "material": 0,
          "mode": 4
        }
      ]
    },
    {
      "name": "Object_28",
      "primitives": [
        {
          "attributes": {
            "NORMAL": 141,
            "POSITION": 140,
            "TANGENT": 142,
            "TEXCOORD_0": 143
          },
          "indices": 144,
          "material": 0,
          "mode": 4
        }
      ]
    },
    {
      "name": "Object_29",
      "primitives": [
        {
          "attributes": {
            "NORMAL": 146,
            "POSITION": 145,
            "TANGENT": 147,
            "TEXCOORD_0": 148
          },
          "indices": 149,
          "material": 0,
          "mode": 4
        }
      ]
    },
    {
      "name": "Object_30",
      "primitives": [
        {
          "attributes": {
            "NORMAL": 151,
            "POSITION": 150,
            "TANGENT": 152,
            "TEXCOORD_0": 153
          },
          "indices": 154,
          "material": 0,
          "mode": 4
        }
      ]
    },
    {
      "name": "Object_31",
      "primitives": [
        {
          "attributes": {
            "NORMAL": 156,
            "POSITION": 155,
            "TANGENT": 157,
            "TEXCOORD_0": 158
          },
          "indices": 159,
          "material": 0,
          "mode": 4
        }
      ]
    },
    {
      "name": "Object_32",
      "primitives": [
        {
          "attributes": {
            "NORMAL": 161,
            "POSITION": 160,
            "TANGENT": 162,
            "TEXCOORD_0": 163
          },
          "indices": 164,
          "material": 0,
          "mode": 4
        }
      ]
    },
    {
      "name": "Object_33",
      "primitives": [
        {
          "attributes": {
            "NORMAL": 166,
            "POSITION": 165,
            "TANGENT": 167,
            "TEXCOORD_0": 168
          },
          "indices": 169,
          "material": 0,
          "mode": 4
        }
      ]
    }
  ],
  "nodes": [
    {
      "children": [
        1
      ],
      "matrix": [
        1.0,
        0.0,
        0.0,
        0.0,
        0.0,
        -0.9998091459274292,
        0.01953558437526204,
        0.0,
        0.0,
        -0.01953558437526204,
        -0.9998091459274292,
        0.0,
        0.0,
        0.0,
        0.0,
        1.0
      ],
      "name": "Sketchfab_model"
    },
    {
      "children": [
        2,
        3,
        4,
        5,
        6,
        7,
        8,
        9,
        10,
        11,
        12,
        13,
        14,
        15,
        16,
        17,
        18,
        19,
        20,
        21,
        22,
        23,
        24,
        25,
        26,
        27,
        28,
        29,
        30,
        31,
        32,
        33,
        34,
        35
      ],
      "name": "a1_beet_root_medium.obj.cleaner.materialmerger.gles"
    },
    {
      "mesh": 0,
      "name": "Object_2"
    },
    {
      "mesh": 1,
      "name": "Object_3"
    },
    {
      "mesh": 2,
      "name": "Object_4"
    },
    {
      "mesh": 3,
      "name": "Object_5"
    },
    {
      "mesh": 4,
      "name": "Object_6"
    },
    {
      "mesh": 5,
      "name": "Object_7"
    },
    {
      "mesh": 6,
      "name": "Object_8"
    },
    {
      "mesh": 7,
      "name": "Object_9"
    },
    {
      "mesh": 8,
      "name": "Object_10"
    },
    {
      "mesh": 9,
      "name": "Object_11"
    },
    {
      "mesh": 10,
      "name": "Object_12"
    },
    {
      "mesh": 11,
      "name": "Object_13"
    },
    {
      "mesh": 12,
      "name": "Object_14"
    },
    {
      "mesh": 13,
      "name": "Object_15"
    },
    {
      "mesh": 14,
      "name": "Object_16"
    },
    {
      "mesh": 15,
      "name": "Object_17"
    },
    {
      "mesh": 16,
      "name": "Object_18"
    },
    {
      "mesh": 17,
      "name": "Object_19"
    },
    {
      "mesh": 18,
      "name": "Object_20"
    },
    {
      "mesh": 19,
      "name": "Object_21"
    },
    {
      "mesh": 20,
      "name": "Object_22"
    },
    {
      "mesh": 21,
      "name": "Object_23"
    },
    {
      "mesh": 22,
      "name": "Object_24"
    },
    {
      "mesh": 23,
      "name": "Object_25"
    },
    {
      "mesh": 24,
      "name": "Object_26"
    },
    {
      "mesh": 25,
      "name": "Object_27"
    },
    {
      "mesh": 26,
      "name": "Object_28"
    },
    {
      "mesh": 27,
      "name": "Object_29"
    },
    {
      "mesh": 28,
      "name": "Object_30"
    },
    {
      "mesh": 29,
      "name": "Object_31"
    },
    {
      "mesh": 30,
      "name": "Object_32"
    },
    {
      "mesh": 31,
      "name": "Object_33"
    },
    {
      "mesh": 32,
      "name": "Object_34"
    },
    {
      "mesh": 33,
      "name": "Object_35"
    }
  ],
  "samplers": [
    {
      "magFilter": 9729,
      "minFilter": 9987,
      "wrapS": 10497,
      "wrapT": 10497
    }
  ],
  "scene": 0,
  "scenes": [
    {
      "name": "Sketchfab_Scene",
      "nodes": [
        0
      ]
    }
  ],
  "textures": [
    {
      "sampler": 0,
      "source": 0
    },
    {
      "sampler": 0,
      "source": 1
    },
    {
      "sampler": 0,
      "source": 2
    }
  ]
}
