{
  "accessors": [
    {
      "bufferView": 2,
      "componentType": 5126,
      "count": 240,
      "max": [
        107.78472900390625,
        19.453441619873047,
        24.8763427734375
      ],
      "min": [
        51.50722885131836,
        14.317359924316406,
        -25.213890075683594
      ],
      "type": "VEC3"
    },
    {
      "bufferView": 2,
      "byteOffset": 2880,
      "componentType": 5126,
      "count": 240,
      "max": [
        0.9850019812583923,
        0.9999987483024597,
        0.9850032925605774
      ],
      "min": [
        -0.9849990010261536,
        -0.9999948740005493,
        -0.9850024580955505
      ],
      "type": "VEC3"
    },
    {
      "bufferView": 1,
      "componentType": 5126,
      "count": 240,
      "max": [
        0.996866762638092,
        0.552497386932373
      ],
      "min": [
        0.584205150604248,
        0.2525451183319092
      ],
      "type": "VEC2"
    },
    {
      "bufferView": 0,
      "componentType": 5125,
      "count": 756,
      "type": "SCALAR"
    },
    {
      "bufferView": 2,
      "byteOffset": 5760,
      "componentType": 5126,
      "count": 367,
      "max": [
        107.28546142578125,
        16.785554885864258,
        24.297298431396484
      ],
      "min": [
        51.94772720336914,
        0.7397364974021912,
        -24.849578857421875
      ],
      "type": "VEC3"
    },
    {
      "bufferView": 2,
      "byteOffset": 10164,
      "componentType": 5126,
      "count": 367,
      "max": [
        0.9989379644393921,
        0.9999995827674866,
        0.9989492893218994
      ],
      "min": [
        -0.9989379644393921,
        -0.9999996423721313,
        -0.9989426732063293
      ],
      "type": "VEC3"
    },
    {
      "bufferView": 1,
      "byteOffset": 1920,
      "componentType": 5126,
      "count": 367,
      "max": [
        0.5742087960243225,
        0.8662331700325012
      ],
      "min": [
        0.0,
        0.0
      ],
      "type": "VEC2"
    },
    {
      "bufferView": 0,
      "byteOffset": 3024,
      "componentType": 5125,
      "count": 1332,
      "type": "SCALAR"
    },
    {
      "bufferView": 2,
      "byteOffset": 14568,
      "componentType": 5126,
      "count": 367,
      "max": [
        37.05649948120117,
        18.876068115234375,
        14.63418197631836
      ],
      "min": [
        -15.600406646728516,
        2.830251693725586,
        -22.138885498046875
      ],
      "type": "VEC3"
    },
    {
      "bufferView": 2,
      "byteOffset": 18972,
      "componentType": 5126,
      "count": 367,
      "max": [
        0.998137891292572,
        0.9999995827674866,
        0.9981364011764526
      ],
      "min": [
        -0.998287558555603,
        -0.9999996423721313,
        -0.9982858300209045
      ],
      "type": "VEC3"
    },
    {
      "bufferView": 1,
      "byteOffset": 4856,
      "componentType": 5126,
      "count": 367,
      "max": [
        0.5742087960243225,
        0.8662331700325012
      ],
      "min": [
        0.0,
        0.0
      ],
      "type": "VEC2"
    },
    {
      "bufferView": 0,
      "byteOffset": 8352,
      "componentType": 5125,
      "count": 1332,
      "type": "SCALAR"
    },
    {
      "bufferView": 2,
      "byteOffset": 23376,
      "componentType": 5126,
      "count": 4,
      "max": [
        36.630348205566406,
        12.548725128173828,
        14.228042602539063
      ],
      "min": [
        -15.17425537109375,
        12.548725128173828,
        -21.73274803161621
      ],
      "type": "VEC3"
    },
    {
      "bufferView": 2,
      "byteOffset": 23424,
      "componentType": 5126,
      "count": 4,
      "max": [
        0.0,
        1.0,
        5.977075279162136e-09
      ],
      "min": [
        0.0,
        1.0,
        5.977075279162136e-09
      ],
      "type": "VEC3"
    },
    {
      "bufferView": 1,
      "byteOffset": 7792,
      "componentType": 5126,
      "count": 4,
      "max": [
        0.9916343092918396,
        0.23746418952941895
      ],
      "min": [
        0.5836336016654968,
        0.004809752106666565
      ],
      "type": "VEC2"
    },
    {
      "bufferView": 0,
      "byteOffset": 13680,
      "componentType": 5125,
      "count": 6,
      "type": "SCALAR"
    },
    {
      "bufferView": 2,
      "byteOffset": 23472,
      "componentType": 5126,
      "count": 240,
      "max": [
        40.281097412109375,
        24.343332290649414,
        -11.851541519165039
      ],
      "min": [
        -12.999805450439453,
        2.818228006362915,
        -47.26043701171875
      ],
      "type": "VEC3"
    },
    {
      "bufferView": 2,
      "byteOffset": 26352,
      "componentType": 5126,
      "count": 240,
      "max": [
        0.9800263047218323,
        0.9675082564353943,
        0.9902582168579102
      ],
      "min": [
        -0.9792338609695435,
        -0.9675082564353943,
        -0.952749490737915
      ],
      "type": "VEC3"
    },
    {
      "bufferView": 1,
      "byteOffset": 7824,
      "componentType": 5126,
      "count": 240,
      "max": [
        0.996866762638092,
        0.552497386932373
      ],
      "min": [
        0.584205150604248,
        0.2525451183319092
      ],
      "type": "VEC2"
    },
    {
      "bufferView": 0,
      "byteOffset": 13704,
      "componentType": 5125,
      "count": 756,
      "type": "SCALAR"
    },
    {
      "bufferView": 2,
      "byteOffset": 29232,
      "componentType": 5126,
      "count": 128,
      "max": [
        35.87916564941406,
        16.94120216369629,
        14.004470825195313
      ],
      "min": [
        -15.059947967529297,
        12.472551345825195,
        -21.190601348876953
      ],
      "type": "VEC3"
    },
    {
      "bufferView": 2,
      "byteOffset": 30768,
      "componentType": 5126,
      "count": 128,
      "max": [
        0.999915599822998,
        0.9858671426773071,
        0.9998135566711426
      ],
      "min": [
        -0.999915599822998,
        -0.022355815395712852,
        -0.9998135566711426
      ],
      "type": "VEC3"
    },
    {
      "bufferView": 1,
      "byteOffset": 9744,
      "componentType": 5126,
      "count": 128,
      "max": [
        0.9937548637390137,
        0.9880430102348328
      ],
      "min": [
        0.5839686393737793,
        0.5730079412460327
      ],
      "type": "VEC2"
    },
    {
      "bufferView": 0,
      "byteOffset": 16728,
      "componentType": 5125,
      "count": 240,
      "type": "SCALAR"
    },
    {
      "bufferView": 2,
      "byteOffset": 32304,
      "componentType": 5126,
      "count": 16,
      "max": [
        32.05120849609375,
        18.612586975097656,
        7.576455116271973
      ],
      "min": [
        11.194709777832031,
        16.32900619506836,
        -15.70144271850586
      ],
      "type": "VEC3"
    },
    {
      "bufferView": 2,
      "byteOffset": 32496,
      "componentType": 5126,
      "count": 16,
      "max": [
        0.9270300269126892,
        0.96347576379776,
        0.8113959431648254
      ],
      "min": [
        -0.9216538667678833,
        -0.3400587737560272,
        -0.8249176144599915
      ],
      "type": "VEC3"
    },
    {
      "bufferView": 1,
      "byteOffset": 10768,
      "componentType": 5126,
      "count": 16,
      "max": [
        0.9937548637390137,
        0.9880430102348328
      ],
      "min": [
        0.5839686393737793,
        0.5730079412460327
      ],
      "type": "VEC2"
    },
    {
      "bufferView": 0,
      "byteOffset": 17688,
      "componentType": 5125,
      "count": 30,
      "type": "SCALAR"
    },
    {
      "bufferView": 2,
      "byteOffset": 32688,
      "componentType": 5126,
      "count": 16,
      "max": [
        9.189064025878906,
        18.732624053955078,
        9.007537841796875
      ],
      "min": [
        -13.35013198852539,
        16.449045181274414,
        -12.914522171020508
      ],
      "type": "VEC3"
    },
    {
      "bufferView": 2,
      "byteOffset": 32880,
      "componentType": 5126,
      "count": 16,
      "max": [
        0.863316535949707,
        0.9634757041931152,
        0.8917030692100525
      ],
      "min": [
        -0.8596469759941101,
        -0.34005725383758545,
        -0.8977219462394714
      ],
      "type": "VEC3"
    },
    {
      "bufferView": 1,
      "byteOffset": 10896,
      "componentType": 5126,
      "count": 16,
      "max": [
        0.9937548637390137,
        0.9880430102348328
      ],
      "min": [
        0.5839686393737793,
        0.5730079412460327
      ],
      "type": "VEC2"
    },
    {
      "bufferView": 0,
      "byteOffset": 17808,
      "componentType": 5125,
      "count": 30,
      "type": "SCALAR"
    },
    {
      "bufferView": 2,
      "byteOffset": 33072,
      "componentType": 5126,
      "count": 367,
      "max": [
        -28.779766082763672,
        17.119487762451172,
        53.14359664916992
      ],
      "min": [
        -79.90455627441406,
        1.0736703872680664,
        -1.7651252746582031
      ],
      "type": "VEC3"
    },
    {
      "bufferView": 2,
      "byteOffset": 37476,
      "componentType": 5126,
      "count": 367,
      "max": [
        0.9920381903648376,
        0.9999995827674866,
        0.9920348525047302
      ],
      "min": [
        -0.9920405745506287,
        -0.9999996423721313,
        -0.9920352697372437
      ],
      "type": "VEC3"
    },
    {
      "bufferView": 1,
      "byteOffset": 11024,
      "componentType": 5126,
      "count": 367,
      "max": [
        0.5742087960243225,
        0.8662331700325012
      ],
      "min": [
        0.0,
        0.0
      ],
      "type": "VEC2"
    },
    {
      "bufferView": 0,
      "byteOffset": 17928,
      "componentType": 5125,
      "count": 1332,
      "type": "SCALAR"
    },
    {
      "bufferView": 2,
      "byteOffset": 41880,
      "componentType": 5126,
      "count": 4,
      "max": [
        -29.242305755615234,
        10.118032455444336,
        52.676300048828125
      ],
      "min": [
        -79.44202423095703,
        10.118032455444336,
        -1.297821044921875
      ],
      "type": "VEC3"
    },
    {
      "bufferView": 2,
      "byteOffset": 41928,
      "componentType": 5126,
      "count": 4,
      "max": [
        0.0,
        1.0,
        0.0
      ],
      "min": [
        0.0,
        1.0,
        0.0
      ],
      "type": "VEC3"
    },
    {
      "bufferView": 1,
      "byteOffset": 13960,
      "componentType": 5126,
      "count": 4,
      "max": [
        0.9916343092918396,
        0.23746418952941895
      ],
      "min": [
        0.5836336016654968,
        0.004809752106666565
      ],
      "type": "VEC2"
    },
    {
      "bufferView": 0,
      "byteOffset": 23256,
      "componentType": 5125,
      "count": 6,
      "type": "SCALAR"
    },
    {
      "bufferView": 2,
      "byteOffset": 41976,
      "componentType": 5126,
      "count": 128,
      "max": [
        -29.845874786376953,
        16.592632293701172,
        52.03924560546875
      ],
      "min": [
        -77.9415283203125,
        11.672134399414063,
        -0.6274547576904297
      ],
      "type": "VEC3"
    },
    {
      "bufferView": 2,
      "byteOffset": 43512,
      "componentType": 5126,
      "count": 128,
      "max": [
        0.9885053634643555,
        0.9844845533370972,
        0.998017430305481
      ],
      "min": [
        -0.9885054230690002,
        -0.053315937519073486,
        -0.998017430305481
      ],
      "type": "VEC3"
    },
    {
      "bufferView": 1,
      "byteOffset": 13992,
      "componentType": 5126,
      "count": 128,
      "max": [
        0.9937548637390137,
        0.9880430102348328
      ],
      "min": [
        0.5839686393737793,
        0.5730079412460327
      ],
      "type": "VEC2"
    },
    {
      "bufferView": 0,
      "byteOffset": 23280,
      "componentType": 5125,
      "count": 240,
      "type": "SCALAR"
    },
    {
      "bufferView": 2,
      "byteOffset": 45048,
      "componentType": 5126,
      "count": 240,
      "max": [
        -51.78215789794922,
        22.669395446777344,
        23.820884704589844
      ],
      "min": [
        -106.31863403320313,
        1.1855859756469727,
        -28.243892669677734
      ],
      "type": "VEC3"
    },
    {
      "bufferView": 2,
      "byteOffset": 47928,
      "componentType": 5126,
      "count": 240,
      "max": [
        0.9403114914894104,
        0.999275803565979,
        0.9495489597320557
      ],
      "min": [
        -0.9402801394462585,
        -0.9981186389923096,
        -0.9543232321739197
      ],
      "type": "VEC3"
    },
    {
      "bufferView": 1,
      "byteOffset": 15016,
      "componentType": 5126,
      "count": 240,
      "max": [
        0.996866762638092,
        0.552497386932373
      ],
      "min": [
        0.584205150604248,
        0.2525451183319092
      ],
      "type": "VEC2"
    },
    {
      "bufferView": 0,
      "byteOffset": 24240,
      "componentType": 5125,
      "count": 756,
      "type": "SCALAR"
    },
    {
      "bufferView": 2,
      "byteOffset": 50808,
      "componentType": 5126,
      "count": 16,
      "max": [
        -46.76974105834961,
        15.98154067993164,
        44.742767333984375
      ],
      "min": [
        -69.69969177246094,
        13.73123550415039,
        23.710098266601563
      ],
      "type": "VEC3"
    },
    {
      "bufferView": 2,
      "byteOffset": 51000,
      "componentType": 5126,
      "count": 16,
      "max": [
        0.8697939515113831,
        0.9811294078826904,
        0.9460923671722412
      ],
      "min": [
        -0.8663589358329773,
        -0.03136525675654411,
        -0.9469962120056152
      ],
      "type": "VEC3"
    },
    {
      "bufferView": 1,
      "byteOffset": 16936,
      "componentType": 5126,
      "count": 16,
      "max": [
        0.9937548637390137,
        0.9880430102348328
      ],
      "min": [
        0.5839686393737793,
        0.5730079412460327
      ],
      "type": "VEC2"
    },
    {
      "bufferView": 0,
      "byteOffset": 27264,
      "componentType": 5125,
      "count": 30,
      "type": "SCALAR"
    },
    {
      "bufferView": 2,
      "byteOffset": 51192,
      "componentType": 5126,
      "count": 16,
      "max": [
        -52.75090026855469,
        18.640506744384766,
        34.209251403808594
      ],
      "min": [
        -73.60736846923828,
        14.40201473236084,
        10.931385040283203
      ],
      "type": "VEC3"
    },
    {
      "bufferView": 2,
      "byteOffset": 51384,
      "componentType": 5126,
      "count": 16,
      "max": [
        0.9560330510139465,
        0.9928687214851379,
        0.8255887627601624
      ],
      "min": [
        -0.9104175567626953,
        -0.33238863945007324,
        -0.8263386487960815
      ],
      "type": "VEC3"
    },
    {
      "bufferView": 1,
      "byteOffset": 17064,
      "componentType": 5126,
      "count": 16,
      "max": [
        0.9937548637390137,
        0.9880430102348328
      ],
      "min": [
        0.5839686393737793,
        0.5730079412460327
      ],
      "type": "VEC2"
    },
    {
      "bufferView": 0,
      "byteOffset": 27384,
      "componentType": 5125,
      "count": 30,
      "type": "SCALAR"
    },
    {
      "bufferView": 2,
      "byteOffset": 51576,
      "componentType": 5126,
      "count": 530,
      "max": [
        -25.788421630859375,
        19.464462280273438,
        -14.398265838623047
      ],
      "min": [
        -67.71060943603516,
        14.358084678649902,
        -69.47542572021484
      ],
      "type": "VEC3"
    },
    {
      "bufferView": 2,
      "byteOffset": 57936,
      "componentType": 5126,
      "count": 530,
      "max": [
        0.9564622640609741,
        0.9999998211860657,
        0.959902822971344
      ],
      "min": [
        -0.9564444422721863,
        -0.9999998211860657,
        -0.9599289298057556
      ],
      "type": "VEC3"
    },
    {
      "bufferView": 1,
      "byteOffset": 17192,
      "componentType": 5126,
      "count": 530,
      "max": [
        0.996866762638092,
        0.552497386932373
      ],
      "min": [
        0.584205150604248,
        0.2525451183319092
      ],
      "type": "VEC2"
    },
    {
      "bufferView": 0,
      "byteOffset": 27504,
      "componentType": 5125,
      "count": 3024,
      "type": "SCALAR"
    },
    {
      "bufferView": 2,
      "byteOffset": 64296,
      "componentType": 5126,
      "count": 1018,
      "max": [
        -26.322525024414063,
        16.82590103149414,
        -14.809762001037598
      ],
      "min": [
        -67.38615417480469,
        0.7802267074584961,
        -69.0226821899414
      ],
      "type": "VEC3"
    },
    {
      "bufferView": 2,
      "byteOffset": 76512,
      "componentType": 5126,
      "count": 1018,
      "max": [
        0.9799033999443054,
        1.0,
        0.9798923134803772
      ],
      "min": [
        -0.9798938035964966,
        -1.0,
        -0.97989422082901
      ],
      "type": "VEC3"
    },
    {
      "bufferView": 1,
      "byteOffset": 21432,
      "componentType": 5126,
      "count": 1018,
      "max": [
        0.5742087960243225,
        0.8662331700325012
      ],
      "min": [
        0.0,
        0.0
      ],
      "type": "VEC2"
    },
    {
      "bufferView": 0,
      "byteOffset": 39600,
      "componentType": 5125,
      "count": 5376,
      "type": "SCALAR"
    },
    {
      "bufferView": 2,
      "byteOffset": 88728,
      "componentType": 5126,
      "count": 1018,
      "max": [
        45.26838684082031,
        16.49777603149414,
        -57.544471740722656
      ],
      "min": [
        -5.719699859619141,
        0.4521036148071289,
        -90.64338684082031
      ],
      "type": "VEC3"
    },
    {
      "bufferView": 2,
      "byteOffset": 100944,
      "componentType": 5126,
      "count": 1018,
      "max": [
        0.9939672350883484,
        1.0,
        0.993600606918335
      ],
      "min": [
        -0.9939671158790588,
        -1.0,
        -0.9936008453369141
      ],
      "type": "VEC3"
    },
    {
      "bufferView": 1,
      "byteOffset": 29576,
      "componentType": 5126,
      "count": 1018,
      "max": [
        0.5742087960243225,
        0.8662331700325012
      ],
      "min": [
        0.0,
        0.0
      ],
      "type": "VEC2"
    },
    {
      "bufferView": 0,
      "byteOffset": 61104,
      "componentType": 5125,
      "count": 5376,
      "type": "SCALAR"
    },
    {
      "bufferView": 2,
      "byteOffset": 113160,
      "componentType": 5126,
      "count": 4,
      "max": [
        44.860774993896484,
        12.669639587402344,
        -57.92945861816406
      ],
      "min": [
        -5.312065124511719,
        12.669639587402344,
        -90.25830841064453
      ],
      "type": "VEC3"
    },
    {
      "bufferView": 2,
      "byteOffset": 113208,
      "componentType": 5126,
      "count": 4,
      "max": [
        0.0,
        1.0,
        1.4942688864039155e-08
      ],
      "min": [
        0.0,
        1.0,
        1.4942687087682316e-08
      ],
      "type": "VEC3"
    },
    {
      "bufferView": 1,
      "byteOffset": 37720,
      "componentType": 5126,
      "count": 4,
      "max": [
        0.9916343092918396,
        0.23746418952941895
      ],
      "min": [
        0.5836336016654968,
        0.004809752106666565
      ],
      "type": "VEC2"
    },
    {
      "bufferView": 0,
      "byteOffset": 82608,
      "componentType": 5125,
      "count": 6,
      "type": "SCALAR"
    },
    {
      "bufferView": 2,
      "byteOffset": 113256,
      "componentType": 5126,
      "count": 530,
      "max": [
        80.6292495727539,
        20.77869415283203,
        -36.0580940246582
      ],
      "min": [
        31.198619842529297,
        1.6584157943725586,
        -91.0107192993164
      ],
      "type": "VEC3"
    },
    {
      "bufferView": 2,
      "byteOffset": 119616,
      "componentType": 5126,
      "count": 530,
      "max": [
        0.9821701049804688,
        0.9768504500389099,
        0.9456531405448914
      ],
      "min": [
        -0.9821688532829285,
        -0.9999746680259705,
        -0.9672279953956604
      ],
      "type": "VEC3"
    },
    {
      "bufferView": 1,
      "byteOffset": 37752,
      "componentType": 5126,
      "count": 530,
      "max": [
        0.996866762638092,
        0.552497386932373
      ],
      "min": [
        0.584205150604248,
        0.2525451183319092
      ],
      "type": "VEC2"
    },
    {
      "bufferView": 0,
      "byteOffset": 82632,
      "componentType": 5125,
      "count": 3024,
      "type": "SCALAR"
    },
    {
      "bufferView": 2,
      "byteOffset": 125976,
      "componentType": 5126,
      "count": 128,
      "max": [
        44.17139434814453,
        16.651912689208984,
        -58.41603088378906
      ],
      "min": [
        -5.257946014404297,
        11.976579666137695,
        -90.21382904052734
      ],
      "type": "VEC3"
    },
    {
      "bufferView": 2,
      "byteOffset": 127512,
      "componentType": 5126,
      "count": 128,
      "max": [
        0.9963570237159729,
        0.9818907380104065,
        0.9997983574867249
      ],
      "min": [
        -0.9964671730995178,
        -0.022537173703312874,
        -0.9997981786727905
      ],
      "type": "VEC3"
    },
    {
      "bufferView": 1,
      "byteOffset": 41992,
      "componentType": 5126,
      "count": 128,
      "max": [
        0.9937548637390137,
        0.9880430102348328
      ],
      "min": [
        0.5839686393737793,
        0.5730079412460327
      ],
      "type": "VEC2"
    },
    {
      "bufferView": 0,
      "byteOffset": 94728,
      "componentType": 5125,
      "count": 240,
      "type": "SCALAR"
    },
    {
      "bufferView": 2,
      "byteOffset": 129048,
      "componentType": 5126,
      "count": 1018,
      "max": [
        128.34805297851563,
        16.827890396118164,
        -17.416465759277344
      ],
      "min": [
        74.01519775390625,
        0.014522552490234375,
        -70.09461975097656
      ],
      "type": "VEC3"
    },
    {
      "bufferView": 2,
      "byteOffset": 141264,
      "componentType": 5126,
      "count": 1018,
      "max": [
        0.9987773299217224,
        0.9999770522117615,
        0.9990238547325134
      ],
      "min": [
        -0.9988476634025574,
        -0.9999567270278931,
        -0.9990912675857544
      ],
      "type": "VEC3"
    },
    {
      "bufferView": 1,
      "byteOffset": 43016,
      "componentType": 5126,
      "count": 1018,
      "max": [
        0.5742087960243225,
        0.8662331700325012
      ],
      "min": [
        0.0,
        0.0
      ],
      "type": "VEC2"
    },
    {
      "bufferView": 0,
      "byteOffset": 95688,
      "componentType": 5125,
      "count": 5376,
      "type": "SCALAR"
    },
    {
      "bufferView": 2,
      "byteOffset": 153480,
      "componentType": 5126,
      "count": 4,
      "max": [
        127.78620910644531,
        13.30223274230957,
        -17.89938735961914
      ],
      "min": [
        74.57071685791016,
        12.520570755004883,
        -69.61334991455078
      ],
      "type": "VEC3"
    },
    {
      "bufferView": 2,
      "byteOffset": 153528,
      "componentType": 5126,
      "count": 4,
      "max": [
        -0.01380667369812727,
        0.9998966455459595,
        -0.00402562040835619
      ],
      "min": [
        -0.013806675560772419,
        0.9998965859413147,
        -0.00402562040835619
      ],
      "type": "VEC3"
    },
    {
      "bufferView": 1,
      "byteOffset": 51160,
      "componentType": 5126,
      "count": 4,
      "max": [
        0.9916343092918396,
        0.23746418952941895
      ],
      "min": [
        0.5836336016654968,
        0.004809752106666565
      ],
      "type": "VEC2"
    },
    {
      "bufferView": 0,
      "byteOffset": 117192,
      "componentType": 5125,
      "count": 6,
      "type": "SCALAR"
    },
    {
      "bufferView": 2,
      "byteOffset": 153576,
      "componentType": 5126,
      "count": 128,
      "max": [
        127.16439056396484,
        16.5374698638916,
        -18.759254455566406
      ],
      "min": [
        75.51869201660156,
        11.945009231567383,
        -67.35195922851563
      ],
      "type": "VEC3"
    },
    {
      "bufferView": 2,
      "byteOffset": 155112,
      "componentType": 5126,
      "count": 128,
      "max": [
        0.9991425275802612,
        0.983543336391449,
        0.9734610319137573
      ],
      "min": [
        -0.9991434216499329,
        -0.03619358688592911,
        -0.9734609127044678
      ],
      "type": "VEC3"
    },
    {
      "bufferView": 1,
      "byteOffset": 51192,
      "componentType": 5126,
      "count": 128,
      "max": [
        0.9937548637390137,
        0.9880430102348328
      ],
      "min": [
        0.5839686393737793,
        0.5730079412460327
      ],
      "type": "VEC2"
    },
    {
      "bufferView": 0,
      "byteOffset": 117216,
      "componentType": 5125,
      "count": 240,
      "type": "SCALAR"
    },
    {
      "bufferView": 2,
      "byteOffset": 156648,
      "componentType": 5126,
      "count": 530,
      "max": [
        159.9202117919922,
        5.21553897857666,
        9.700763702392578
      ],
      "min": [
        117.30662536621094,
        -0.08167648315429688,
        -45.58346176147461
      ],
      "type": "VEC3"
    },
    {
      "bufferView": 2,
      "byteOffset": 163008,
      "componentType": 5126,
      "count": 530,
      "max": [
        0.9508002996444702,
        0.999991774559021,
        0.9545283317565918
      ],
      "min": [
        -0.9508476257324219,
        -0.9999917149543762,
        -0.9544496536254883
      ],
      "type": "VEC3"
    },
    {
      "bufferView": 1,
      "byteOffset": 52216,
      "componentType": 5126,
      "count": 530,
      "max": [
        0.996866762638092,
        0.552497386932373
      ],
      "min": [
        0.584205150604248,
        0.2525451183319092
      ],
      "type": "VEC2"
    },
    {
      "bufferView": 0,
      "byteOffset": 118176,
      "componentType": 5125,
      "count": 3024,
      "type": "SCALAR"
    }
  ],
  "asset": {
    "extras": {
      "author": "TampaJoey (https://sketchfab.com/TampaJoey)",
      "license": "CC-BY-4.0 (http://creativecommons.org/licenses/by/4.0/)",
      "source": "https://sketchfab.com/3d-models/shoe-boxes-full-of-cash-low-poly-game-ready-3f9d74e92b584af890a41cff108d2b1a",
      "title": "Shoe boxes full of cash (low poly, game ready)"
    },
    "generator": "Sketchfab-15.16.0",
    "version": "2.0"
  },
  "bufferViews": [
    {
      "buffer": 0,
      "byteLength": 130272,
      "name": "floatBufferViews",
      "target": 34963
    },
    {
      "buffer": 0,
      "byteLength": 56456,
      "byteOffset": 130272,
      "byteStride": 8,
      "name": "floatBufferViews",
      "target": 34962
    },
    {
      "buffer": 0,
      "byteLength": 169368,
      "byteOffset": 186728,
      "byteStride": 12,
      "name": "floatBufferViews",
      "target": 34962
    }
  ],
  "buffers": [
    {
      "byteLength": 356096,
      "uri": "scene.bin"
    }
  ],
  "images": [
    {
      "uri": "textures/ShoeBoxVans_baseColor.png"
    },
    {
      "uri": "textures/ShoeBoxNike_baseColor.png"
    },
    {
      "uri": "textures/UnderArmor_baseColor.png"
    }
  ],
  "materials": [
    {
      "doubleSided": true,
      "name": "ShoeBoxVans",
      "pbrMetallicRoughness": {
        "baseColorTexture": {
          "index": 0
        },
        "metallicFactor": 0.0,
        "roughnessFactor": 0.6
      }
    },
    {
      "doubleSided": true,
      "name": "ShoeBoxNike",
      "pbrMetallicRoughness": {
        "baseColorTexture": {
          "index": 1
        },
        "metallicFactor": 0.0,
        "roughnessFactor": 0.6
      }
    },
    {
      "doubleSided": true,
      "name": "UnderArmor",
      "pbrMetallicRoughness": {
        "baseColorTexture": {
          "index": 2
        },
        "metallicFactor": 0.0,
        "roughnessFactor": 0.6
      }
    }
  ],
  "meshes": [
    {
      "name": "Top1_ShoeBoxVans_0",
      "primitives": [
        {
          "attributes": {
            "NORMAL": 1,
            "POSITION": 0,
            "TEXCOORD_0": 2
          },
          "indices": 3,
          "material": 0,
          "mode": 4
        }
      ]
    },
    {
      "name": "Bottom1_ShoeBoxVans_0",
      "primitives": [
        {
          "attributes": {
            "NORMAL": 5,
            "POSITION": 4,
            "TEXCOORD_0": 6
          },
          "indices": 7,
          "material": 0,
          "mode": 4
        }
      ]
    },
    {
      "name": "Bottom2_ShoeBoxNike_0",
      "primitives": [
        {
          "attributes": {
            "NORMAL": 9,
            "POSITION": 8,
            "TEXCOORD_0": 10
          },
          "indices": 11,
          "material": 1,
          "mode": 4
        }
      ]
    },
    {
      "name": "Cash_bg2_ShoeBoxNike_0",
      "primitives": [
        {
          "attributes": {
            "NORMAL": 13,
            "POSITION": 12,
            "TEXCOORD_0": 14
          },
          "indices": 15,
          "material": 1,
          "mode": 4
        }
      ]
    },
    {
      "name": "Top2_ShoeBoxNike_0",
      "primitives": [
        {
          "attributes": {
            "NORMAL": 17,
            "POSITION": 16,
            "TEXCOORD_0": 18
          },
          "indices": 19,
          "material": 1,
          "mode": 4
        }
      ]
    },
    {
      "name": "Cash2_ShoeBoxNike_0",
      "primitives": [
        {
          "attributes": {
            "NORMAL": 21,
            "POSITION": 20,
            "TEXCOORD_0": 22
          },
          "indices": 23,
          "material": 1,
          "mode": 4
        }
      ]
    },
    {
      "name": "Cash2b_ShoeBoxNike_0",
      "primitives": [
        {
          "attributes": {
            "NORMAL": 25,
            "POSITION": 24,
            "TEXCOORD_0": 26
          },
          "indices": 27,
          "material": 1,
          "mode": 4
        }
      ]
    },
    {
      "name": "Cash2b1_ShoeBoxNike_0",
      "primitives": [
        {
          "attributes": {
            "NORMAL": 29,
            "POSITION": 28,
            "TEXCOORD_0": 30
          },
          "indices": 31,
          "material": 1,
          "mode": 4
        }
      ]
    },
    {
      "name": "Bottom3_ShoeBoxVans_0",
      "primitives": [
        {
          "attributes": {
            "NORMAL": 33,
            "POSITION": 32,
            "TEXCOORD_0": 34
          },
          "indices": 35,
          "material": 0,
          "mode": 4
        }
      ]
    },
    {
      "name": "Cash_bg3_ShoeBoxVans_0",
      "primitives": [
        {
          "attributes": {
            "NORMAL": 37,
            "POSITION": 36,
            "TEXCOORD_0": 38
          },
          "indices": 39,
          "material": 0,
          "mode": 4
        }
      ]
    },
    {
      "name": "Cash3_ShoeBoxVans_0",
      "primitives": [
        {
          "attributes": {
            "NORMAL": 41,
            "POSITION": 40,
            "TEXCOORD_0": 42
          },
          "indices": 43,
          "material": 0,
          "mode": 4
        }
      ]
    },
    {
      "name": "Top3_ShoeBoxVans_0",
      "primitives": [
        {
          "attributes": {
            "NORMAL": 45,
            "POSITION": 44,
            "TEXCOORD_0": 46
          },
          "indices": 47,
          "material": 0,
          "mode": 4
        }
      ]
    },
    {
      "name": "Cash3b_ShoeBoxVans_0",
      "primitives": [
        {
          "attributes": {
            "NORMAL": 49,
            "POSITION": 48,
            "TEXCOORD_0": 50
          },
          "indices": 51,
          "material": 0,
          "mode": 4
        }
      ]
    },
    {
      "name": "Cash3c_ShoeBoxVans_0",
      "primitives": [
        {
          "attributes": {
            "NORMAL": 53,
            "POSITION": 52,
            "TEXCOORD_0": 54
          },
          "indices": 55,
          "material": 0,
          "mode": 4
        }
      ]
    },
    {
      "name": "Top4_UnderArmor_0",
      "primitives": [
        {
          "attributes": {
            "NORMAL": 57,
            "POSITION": 56,
            "TEXCOORD_0": 58
          },
          "indices": 59,
          "material": 2,
          "mode": 4
        }
      ]
    },
    {
      "name": "Bottom4_UnderArmor_0",
      "primitives": [
        {
          "attributes": {
            "NORMAL": 61,
            "POSITION": 60,
            "TEXCOORD_0": 62
          },
          "indices": 63,
          "material": 2,
          "mode": 4
        }
      ]
    },
    {
      "name": "Bottom5_ShoeBoxNike_0",
      "primitives": [
        {
          "attributes": {
            "NORMAL": 65,
            "POSITION": 64,
            "TEXCOORD_0": 66
          },
          "indices": 67,
          "material": 1,
          "mode": 4
        }
      ]
    },
    {
      "name": "Cash_bg5_ShoeBoxNike_0",
      "primitives": [
        {
          "attributes": {
            "NORMAL": 69,
            "POSITION": 68,
            "TEXCOORD_0": 70
          },
          "indices": 71,
          "material": 1,
          "mode": 4
        }
      ]
    },
    {
      "name": "Top5_ShoeBoxNike_0",
      "primitives": [
        {
          "attributes": {
            "NORMAL": 73,
            "POSITION": 72,
            "TEXCOORD_0": 74
          },
          "indices": 75,
          "material": 1,
          "mode": 4
        }
      ]
    },
    {
      "name": "Cash5_ShoeBoxNike_0",
      "primitives": [
        {
          "attributes": {
            "NORMAL": 77,
            "POSITION": 76,
            "TEXCOORD_0": 78
          },
          "indices": 79,
          "material": 1,
          "mode": 4
        }
      ]
    },
    {
      "name": "Bottom6_UnderArmor_0",
      "primitives": [
        {
          "attributes": {
            "NORMAL": 81,
            "POSITION": 80,
            "TEXCOORD_0": 82
          },
          "indices": 83,
          "material": 2,
          "mode": 4
        }
      ]
    },
    {
      "name": "Cash_bg6_ShoeBoxNike_0",
      "primitives": [
        {
          "attributes": {
            "NORMAL": 85,
            "POSITION": 84,
            "TEXCOORD_0": 86
          },
          "indices": 87,
          "material": 1,
          "mode": 4
        }
      ]
    },
    {
      "name": "Cash6_ShoeBoxNike_0",
      "primitives": [
        {
          "attributes": {
            "NORMAL": 89,
            "POSITION": 88,
            "TEXCOORD_0": 90
          },
          "indices": 91,
          "material": 1,
          "mode": 4
        }
      ]
    },
    {
      "name": "Top6_UnderArmor_0",
      "primitives": [
        {
          "attributes": {
            "NORMAL": 93,
            "POSITION": 92,
            "TEXCOORD_0": 94
          },
          "indices": 95,
          "material": 2,
          "mode": 4
        }
      ]
    }
  ],
  "nodes": [
    {
      "children": [
        1
      ],
      "matrix": [
        1.0,
        0.0,
        0.0,
        0.0,
        0.0,
        2.220446049250313e-16,
        -1.0,
        0.0,
        0.0,
        1.0,
        2.220446049250313e-16,
        0.0,
        0.0,
        0.0,
        0.0,
        1.0
      ],
      "name": "Sketchfab_model"
    },
    {
      "children": [
        2
      ],
      "matrix": [
        0.009999999776482582,
        0.0,
        0.0,
        0.0,
        0.0,
        0.0,
        0.009999999776482582,
        0.0,
        0.0,
        -0.009999999776482582,
        0.0,
        0.0,
        0.0,
        0.0,
        0.0,
        1.0
      ],
      "name": "1117076813234c9eace810e6796a0aad.fbx"
    },
    {
      "children": [
        3,
        8,
        21,
        34,
        39,
        48
      ],
      "name": "RootNode"
    },
    {
      "children": [
        4,
        6
      ],
      "name": "Box1"
    },
    {
      "children": [
        5
      ],
      "name": "Top1"
    },
    {
      "mesh": 0,
      "name": "Top1_ShoeBoxVans_0"
    },
    {
      "children": [
        7
      ],
      "name": "Bottom1"
    },
    {
      "mesh": 1,
      "name": "Bottom1_ShoeBoxVans_0"
    },
    {
      "children": [
        9,
        11,
        13,
        15,
        17,
        19
      ],
      "name": "Box2"
    },
    {
      "children": [
        10
      ],
      "name": "Bottom2"
    },
    {
      "mesh": 2,
      "name": "Bottom2_ShoeBoxNike_0"
    },
    {
      "children": [
        12
      ],
      "name": "Cash_bg2"
    },
    {
      "mesh": 3,
      "name": "Cash_bg2_ShoeBoxNike_0"
    },
    {
      "children": [
        14
      ],
      "name": "Top2"
    },
    {
      "mesh": 4,
      "name": "Top2_ShoeBoxNike_0"
    },
    {
      "children": [
        16
      ],
      "name": "Cash2"
    },
    {
      "mesh": 5,
      "name": "Cash2_ShoeBoxNike_0"
    },
    {
      "children": [
        18
      ],
      "name": "Cash2b"
    },
    {
      "mesh": 6,
      "name": "Cash2b_ShoeBoxNike_0"
    },
    {
      "children": [
        20
      ],
      "name": "Cash2b1"
    },
    {
      "mesh": 7,
      "name": "Cash2b1_ShoeBoxNike_0"
    },
    {
      "children": [
        22,
        24,
        26,
        28,
        30,
        32
      ],
      "name": "Box3"
    },
    {
      "children": [
        23
      ],
      "name": "Bottom3"
    },
    {
      "mesh": 8,
      "name": "Bottom3_ShoeBoxVans_0"
    },
    {
      "children": [
        25
      ],
      "name": "Cash_bg3"
    },
    {
      "mesh": 9,
      "name": "Cash_bg3_ShoeBoxVans_0"
    },
    {
      "children": [
        27
      ],
      "matrix": [
        1.0,
        0.0,
        0.0,
        0.0,
        0.0,
        1.0,
        0.0,
        0.0,
        0.0,
        0.0,
        1.0,
        0.0,
        -0.03508502617478371,
        0.0,
        -0.22746455669403076,
        1.0
      ],
      "name": "Cash3"
    },
    {
      "mesh": 10,
      "name": "Cash3_ShoeBoxVans_0"
    },
    {
      "children": [
        29
      ],
      "name": "Top3"
    },
    {
      "mesh": 11,
      "name": "Top3_ShoeBoxVans_0"
    },
    {
      "children": [
        31
      ],
      "name": "Cash3b"
    },
    {
      "mesh": 12,
      "name": "Cash3b_ShoeBoxVans_0"
    },
    {
      "children": [
        33
      ],
      "name": "Cash3c"
    },
    {
      "mesh": 13,
      "name": "Cash3c_ShoeBoxVans_0"
    },
    {
      "children": [
        35,
        37
      ],
      "name": "Box4"
    },
    {
      "children": [
        36
      ],
      "name": "Top4"
    },
    {
      "mesh": 14,
      "name": "Top4_UnderArmor_0"
    },
    {
      "children": [
        38
      ],
      "name": "Bottom4"
    },
    {
      "mesh": 15,
      "name": "Bottom4_UnderArmor_0"
    },
    {
      "children": [
        40,
        42,
        44,
        46
      ],
      "name": "Box5"
    },
    {
      "children": [
        41
      ],
      "name": "Bottom5"
    },
    {
      "mesh": 16,
      "name": "Bottom5_ShoeBoxNike_0"
    },
    {
      "children": [
        43
      ],
      "name": "Cash_bg5"
    },
    {
      "mesh": 17,
      "name": "Cash_bg5_ShoeBoxNike_0"
    },
    {
      "children": [
        45
      ],
      "name": "Top5"
    },
    {
      "mesh": 18,
      "name": "Top5_ShoeBoxNike_0"
    },
    {
      "children": [
        47
      ],
      "name": "Cash5"
    },
    {
      "mesh": 19,
      "name": "Cash5_ShoeBoxNike_0"
    },
    {
      "children": [
        49,
        51,
        53,
        55
      ],
      "name": "Box6"
    },
    {
      "children": [
        50
      ],
      "name": "Bottom6"
    },
    {
      "mesh": 20,
      "name": "Bottom6_UnderArmor_0"
    },
    {
      "children": [
        52
      ],
      "name": "Cash_bg6"
    },
    {
      "mesh": 21,
      "name": "Cash_bg6_ShoeBoxNike_0"
    },
    {
      "children": [
        54
      ],
      "name": "Cash6"
    },
    {
      "mesh": 22,
      "name": "Cash6_ShoeBoxNike_0"
    },
    {
      "children": [
        56
      ],
      "name": "Top6"
    },
    {
      "mesh": 23,
      "name": "Top6_UnderArmor_0"
    }
  ],
  "samplers": [
    {
      "magFilter": 9729,
      "minFilter": 9987,
      "wrapS": 10497,
      "wrapT": 10497
    }
  ],
  "scene": 0,
  "scenes": [
    {
      "name": "Sketchfab_Scene",
      "nodes": [
        0
      ]
    }
  ],
  "textures": [
    {
      "sampler": 0,
      "source": 0
    },
    {
      "sampler": 0,
      "source": 1
    },
    {
      "sampler": 0,
      "source": 2
    }
  ]
}
